# File produced by Open Asset Import Library (http://www.assimp.sf.net)
# (assimp v3.1.243586452)

mtllib Slime.mtl

# vertex positions
v -24.178932 242.320587 19.767813
v -34.075729 262.001648 -37.849579
v -45.991005 259.119873 -31.673489
v -55.582581 255.641495 -22.346085
v -60.428833 250.381866 -10.833385
v -63.302139 244.741028 2.103216
v -66.278183 237.301086 15.760943
v -65.418594 229.447784 29.309334
v -59.812813 223.011383 41.728947
v -51.409752 217.816925 51.589222
v -39.554863 215.702148 59.017712
v -26.045692 216.892731 62.942184
v -12.601135 220.926270 63.219715
v 1.331505 226.996613 60.566471
v 14.837471 234.228302 54.535522
v 21.337044 240.864166 44.740585
v 28.407509 247.416504 34.225792
v 30.295258 254.169952 19.285940
v 27.499924 258.579437 2.673847
v 19.980797 261.458923 -13.663239
v 8.472801 263.316040 -27.331215
v -5.548653 263.715393 -36.322815
v -20.263016 263.416748 -39.732979
v -44.394875 266.453308 -98.067879
v -63.436340 264.850037 -83.668983
v -77.446716 260.437927 -65.233063
v -84.961182 254.297333 -44.191933
v -93.515778 247.209259 -21.160889
v -100.577438 236.493652 3.665556
v -98.921844 219.335052 29.585510
v -89.966309 202.585159 54.158531
v -73.676498 190.593201 74.144325
v -51.529572 186.487106 87.761032
v -26.019325 190.684525 95.059906
v 0.189156 200.938324 96.466255
v 24.783764 213.227203 92.247467
v 46.123817 226.104126 82.884720
v 63.370258 238.817932 68.706146
v 75.885864 249.531433 48.923096
v 82.087631 256.693451 21.840294
v 79.532928 259.165710 -12.545422
v 66.266449 259.282318 -49.998993
v 42.408665 259.851318 -82.288948
v 11.825848 261.908508 -101.472923
v -18.855232 264.900330 -105.516922
v -55.025940 247.823608 -143.234955
v -78.261444 250.865387 -126.467728
v -93.364670 249.344666 -105.191544
v -105.399338 244.630341 -78.285973
v -116.904343 237.633148 -45.818001
v -122.939163 229.775543 -21.238804
v -126.502609 202.172302 25.464630
v -114.158752 176.521698 60.391216
v -92.272263 159.137665 92.213806
v -62.577271 155.532791 113.146561
v -28.788948 159.086426 127.532234
v 8.451195 178.802567 130.232101
v 44.562359 194.438553 124.351196
v 76.115318 208.335724 109.172577
v 99.157104 220.750031 88.875458
v 110.615433 231.374756 65.546021
v 121.373520 235.554657 30.753046
v 121.708344 229.655090 -16.385273
v 104.837135 219.619049 -71.580322
v 69.664474 218.310547 -119.294449
v 21.713097 228.080933 -147.530151
v -23.537239 239.770569 -152.652832
v -54.447578 196.275574 -182.146057
v -84.992950 203.305435 -168.647308
v -107.514572 206.749084 -145.921631
v -123.840576 205.007614 -111.750336
v -138.673431 197.995712 -70.551636
v -151.166550 190.705658 -24.624901
v -155.967865 171.253265 25.555500
v -145.206009 144.555542 75.848160
v -118.233688 126.405243 118.551109
v -83.376053 123.730858 147.760986
v -37.091438 135.002533 168.756531
v 12.283241 152.271500 175.680099
v 61.366112 165.147903 167.859024
v 108.457840 173.212067 151.214844
v 139.439407 181.979477 124.023399
v 159.892029 189.393356 87.400757
v 174.776398 190.254730 44.323105
v 173.160583 176.834351 -10.879284
v 150.910583 156.689774 -76.524574
v 101.016998 152.601135 -136.275330
v 38.058231 168.515015 -174.876495
v -14.421173 184.946198 -185.719833
v -37.430580 130.774216 -214.403061
v -80.526077 136.021866 -204.736282
v -115.308914 145.595276 -179.195175
v -142.122787 146.756195 -139.030853
v -164.548706 141.047821 -86.959351
v -181.023376 140.754562 -27.758663
v -186.812241 127.364563 34.516930
v -176.012039 106.934883 95.257813
v -143.180527 92.746849 149.488373
v -100.484177 91.324188 193.941162
v -41.772949 104.774216 221.121368
v 19.944756 121.910995 228.442337
v 84.251801 130.407913 226.594650
v 154.507446 132.266876 206.443542
v 209.363525 135.172241 169.245621
v 246.161240 137.859879 117.163376
v 255.556595 135.121475 61.328014
v 249.100266 119.826424 -1.808004
v 210.906082 99.077293 -74.659828
v 139.979797 92.736603 -142.484024
v 68.682297 105.674400 -189.732941
v 11.626179 120.116173 -210.582596
v -18.469398 77.498749 -238.278809
v -73.847763 84.349464 -230.245300
v -121.688431 90.514191 -202.145187
v -161.326080 92.793327 -155.962784
v -193.805145 89.349823 -95.183937
v -213.093231 91.847244 -25.492970
v -215.554077 83.346863 46.030441
v -199.670441 69.619064 114.415306
v -166.425415 59.410370 177.432816
v -113.517410 58.747223 232.745850
v -45.580559 71.426468 267.222443
v 27.301064 86.108002 281.421112
v 107.689499 91.610588 282.527771
v 200.896255 90.926331 261.592682
v 286.436707 91.378593 210.787003
v 340.434052 91.037888 144.883072
v 348.621338 85.994019 74.506294
v 320.813995 74.084373 0.388231
v 259.867035 59.564224 -79.591026
v 176.752808 55.608330 -153.341034
v 101.393784 60.799629 -202.431244
v 39.842072 68.274292 -228.906906
v -10.394470 42.609238 -249.571350
v -72.157364 45.746140 -239.531982
v -128.199692 49.439171 -208.073349
v -176.403168 51.842247 -157.372772
v -214.847839 51.867058 -92.758850
v -234.826141 51.618073 -20.231754
v -233.381744 46.240334 53.391689
v -212.745728 37.402695 123.718239
v -176.709518 30.138733 188.021942
v -121.245407 30.325127 243.358826
v -49.640244 40.294685 281.325134
v 30.010647 52.254539 298.891754
v 120.497574 58.081131 298.615906
v 220.238876 59.089684 271.870972
v 311.379730 59.354820 216.873444
v 367.458496 58.453987 145.876953
v 367.998169 54.273186 70.029312
v 330.482086 45.846710 -10.463921
v 266.280518 37.898834 -92.460014
v 189.412537 36.111633 -163.261444
v 116.913986 38.735794 -211.621689
v 52.862038 40.652794 -239.946777
v -11.840813 21.798683 -230.223877
v -70.182739 21.916542 -217.884842
v -124.389877 22.352333 -186.596649
v -170.847748 22.709198 -138.529556
v -206.119690 22.761421 -78.788933
v -225.017365 21.855492 -13.417202
v -224.675781 18.459137 52.560207
v -205.950714 13.292473 115.411697
v -171.571442 9.384010 171.947693
v -122.139008 9.462578 218.674957
v -56.826706 14.367676 251.847229
v 18.510914 21.786896 267.804352
v 100.247223 27.586311 264.148560
v 183.849762 31.075111 237.994659
v 263.730774 32.725830 179.254181
v 305.604675 33.004204 121.461098
v 310.145081 31.273888 56.023232
v 283.937927 27.856316 -11.519318
v 231.415649 24.043427 -94.871376
v 169.381805 22.904755 -155.456375
v 107.150208 22.861488 -198.790863
v 47.539379 22.287651 -223.764191
v -15.361069 9.041771 -179.491028
v -61.389023 7.561264 -167.937515
v -103.255020 6.177032 -142.449234
v -138.457397 5.170692 -105.057785
v -164.362183 4.574501 -59.151657
v -178.766006 3.779877 -8.807137
v -180.313492 2.267136 42.098793
v -168.522354 0.429260 90.151787
v -143.758835 -0.887177 132.345062
v -107.002914 -0.980682 165.996262
v -59.714127 0.690720 188.536789
v -4.077980 4.079857 197.696823
v 56.684246 8.217888 191.819870
v 117.381950 12.030396 170.124771
v 169.915039 14.969826 133.525711
v 204.941849 16.670143 85.324982
v 216.170532 16.913254 30.379604
v 203.246689 16.053619 -26.286850
v 171.440308 14.774200 -79.666550
v 128.644592 13.428169 -124.831268
v 81.292831 12.012215 -157.774078
v 32.738449 10.528633 -176.201553
v -7.458015 2.466095 -97.978508
v -33.615768 1.241547 -91.487946
v -56.947807 0.114502 -77.598289
v -76.148468 -0.841797 -57.506317
v -90.100082 -1.600189 -32.842632
v -97.914444 -2.192123 -5.553368
v -98.966415 -2.659531 22.259699
v -92.926987 -2.981796 48.506798
v -79.821838 -3.049759 71.246445
v -60.121498 -2.709061 88.780655
v -34.834259 -1.844864 99.728798
v -5.563057 -0.463852 103.103592
v 25.471863 1.278107 98.403297
v 55.443886 3.121902 85.730331
v 81.074997 4.786316 65.909340
v 99.123779 6.039902 40.516163
v 107.197166 6.750458 11.740708
v 104.500641 6.901711 -17.871368
v 92.027275 6.565002 -45.692345
v 72.041679 5.847992 -69.275116
v 47.229942 4.859818 -86.619354
v 20.053177 3.701538 -96.386261
v 0.000000 0.000000 0.000013
v -141.536209 172.286179 -163.593750
v -135.941666 142.758621 -157.999207
v -146.381226 146.714569 -147.559631
v -154.023514 157.522400 -139.917328
v -156.820801 172.286179 -137.120056
v -154.023514 187.049957 -139.917328
v -146.381241 197.857788 -147.559631
v -135.941666 201.813736 -157.999176
v -125.502106 197.857803 -168.438751
v -117.859802 187.049988 -176.081055
v -115.062515 172.286209 -178.878326
v -117.859787 157.522430 -176.081055
v -125.502075 146.714584 -168.438782
v -120.657059 121.142944 -142.714600
v -138.738937 127.994843 -124.632736
v -151.975784 146.714554 -111.395889
v -156.820801 172.286179 -106.550873
v -151.975784 197.857788 -111.395889
v -138.738937 216.577515 -124.632736
v -120.657089 223.429413 -142.714584
v -102.575226 216.577545 -160.796463
v -89.338379 197.857819 -174.033310
v -84.493332 172.286224 -178.878326
v -89.338333 146.714600 -174.033325
v -102.575165 127.994873 -160.796494
v -99.777939 113.231064 -121.835464
v -120.657059 121.142952 -100.956329
v -135.941666 142.758621 -85.671738
v -141.536209 172.286179 -80.077194
v -135.941666 201.813721 -85.671738
v -120.657089 223.429413 -100.956322
v -99.777954 231.341309 -121.835449
v -78.898819 223.429428 -142.714584
v -63.614227 201.813782 -157.999176
v -58.019653 172.286224 -163.593750
v -63.614182 142.758667 -157.999222
v -78.898758 121.142982 -142.714630
v -78.898788 121.142952 -100.956329
v -96.980652 127.994850 -82.874466
v -110.217514 146.714569 -69.637627
v -115.062515 172.286179 -64.792610
v -110.217514 197.857788 -69.637627
v -96.980682 216.577515 -82.874466
v -78.898804 223.429413 -100.956314
v -60.816940 216.577545 -119.038177
v -47.580093 197.857819 -132.275024
v -42.735069 172.286224 -137.120056
v -47.580070 146.714615 -132.275040
v -60.816895 127.994873 -119.038223
v -63.614212 142.758621 -85.671738
v -74.053772 146.714569 -75.232178
v -81.696075 157.522400 -67.589882
v -84.493347 172.286179 -64.792610
v -81.696075 187.049957 -67.589882
v -74.053787 197.857788 -75.232162
v -63.614227 201.813751 -85.671738
v -53.174644 197.857819 -96.111305
v -45.532349 187.049988 -103.753601
v -42.735069 172.286209 -106.550873
v -45.532326 157.522430 -103.753616
v -53.174622 146.714584 -96.111336
v -58.019653 172.286194 -80.077194
v -42.106430 145.932251 -222.705872
v -40.939186 135.821121 -225.240646
v -46.130943 136.556824 -225.140457
v -50.282890 139.446472 -223.755936
v -52.282524 143.715790 -221.458130
v -51.594032 148.220825 -218.862671
v -48.401917 151.754440 -216.665070
v -43.561485 153.369812 -215.454132
v -38.369736 152.634125 -215.554352
v -34.217789 149.744476 -216.938843
v -32.218155 145.475159 -219.236679
v -32.906624 140.970123 -221.832108
v -36.098747 137.436508 -224.029709
v -40.372513 125.745720 -222.379288
v -49.364906 127.019989 -222.205704
v -56.556290 132.025009 -219.807663
v -60.019745 139.419678 -215.827728
v -58.827248 147.222626 -211.332306
v -53.298340 153.343033 -207.525940
v -44.914467 156.140945 -205.428543
v -35.922089 154.866684 -205.602112
v -28.730698 149.861679 -208.000153
v -25.267235 142.466995 -211.980087
v -26.459724 134.664063 -216.475525
v -31.988625 128.543640 -220.281876
v -40.558258 118.405731 -214.888443
v -50.941765 119.877129 -214.688034
v -59.245659 125.656425 -211.919022
v -63.244904 134.195068 -207.323395
v -61.867950 143.205124 -202.132507
v -55.483704 150.272354 -197.737289
v -45.802834 153.503128 -195.315430
v -35.419342 152.031723 -195.515854
v -27.115448 146.252441 -198.284866
v -23.116173 137.713806 -202.880508
v -24.493141 128.703735 -208.071365
v -30.877388 121.636505 -212.466599
v -41.446632 115.767899 -204.775330
v -50.439011 117.042168 -204.601776
v -57.630394 122.047188 -202.203751
v -61.093857 129.441864 -198.223801
v -59.901367 137.244797 -193.728378
v -54.372452 143.365204 -189.921997
v -45.988579 146.163132 -187.824615
v -36.996208 144.888870 -187.998169
v -29.804817 139.883850 -190.396194
v -26.341347 132.489182 -194.376144
v -27.533829 124.686241 -198.871582
v -33.062752 118.565826 -202.677948
v -42.799614 118.539032 -194.749741
v -47.991364 119.274734 -194.649536
v -52.143318 122.164383 -193.265030
v -54.142937 126.433701 -190.967224
v -53.454460 130.938736 -188.371765
v -50.262337 134.472351 -186.174164
v -45.421906 136.087738 -184.963226
v -40.230148 135.352036 -185.063446
v -36.078201 132.462387 -186.447937
v -34.078568 128.193069 -188.745773
v -34.767059 123.688042 -191.341202
v -37.959167 120.154419 -193.538803
v -44.254662 125.976608 -187.498016
v -175.255142 176.923935 -6.115204
v -178.005661 166.812805 -6.586620
v -176.565155 167.548508 -1.597710
v -174.153198 170.438156 2.054420
v -171.416153 174.707474 3.391203
v -169.087341 179.212494 2.054420
v -167.790787 182.746124 -1.597710
v -167.873917 184.361511 -6.586611
v -169.314423 183.625809 -11.575531
v -171.726379 180.736160 -15.227661
v -174.463425 176.466843 -16.564445
v -176.792252 171.961823 -15.227661
v -178.088791 168.428192 -11.575542
v -175.388458 156.737396 -7.874554
v -172.893387 158.011673 0.766487
v -168.715820 163.016693 7.092182
v -163.975067 170.411377 9.407530
v -159.941452 178.214310 7.092173
v -157.695770 184.334717 0.766497
v -157.839752 187.132629 -7.874554
v -160.334808 185.858368 -16.515594
v -164.512405 180.853363 -22.841290
v -169.253128 173.458679 -25.156654
v -173.286758 165.655746 -22.841309
v -175.532440 159.535339 -16.515621
v -168.104797 149.397415 -9.633923
v -165.223755 150.868820 0.343903
v -160.399902 156.648117 7.648180
v -154.925751 165.186752 10.321716
v -150.268143 174.196808 7.648170
v -147.675049 181.264038 0.343903
v -147.841293 184.494812 -9.633911
v -150.722366 183.023407 -19.611729
v -155.546204 177.244125 -26.916004
v -161.020340 168.705490 -29.589569
v -165.677963 159.695435 -26.916023
v -168.271057 152.628189 -19.611763
v -158.106354 146.759583 -11.393280
v -155.611298 148.033859 -2.752230
v -151.433701 153.038879 3.573446
v -146.692978 160.433548 5.888811
v -142.659348 168.236481 3.573446
v -140.413681 174.356903 -2.752230
v -140.557663 177.154816 -11.393272
v -143.052719 175.880554 -20.034313
v -147.230286 170.875549 -26.360008
v -151.971039 163.480865 -28.675373
v -156.004639 155.677933 -26.360016
v -158.250336 149.557510 -20.034340
v -148.072189 149.530716 -12.681213
v -146.631683 150.266418 -7.692310
v -144.219742 153.156067 -4.040173
v -141.482681 157.425385 -2.703400
v -139.153870 161.930420 -4.040173
v -137.857330 165.464035 -7.692310
v -137.940445 167.079407 -12.681213
v -139.380966 166.343719 -17.670124
v -141.792908 163.454071 -21.322266
v -144.529953 159.184753 -22.659046
v -146.858780 154.679733 -21.322273
v -148.155319 151.146103 -17.670143
v -140.690964 156.968292 -13.152641
v -221.079376 86.920364 -53.318802
v -217.599335 77.178223 -51.586067
v -217.113434 79.587494 -46.953049
v -216.970001 83.999252 -44.120842
v -217.207458 89.231354 -43.848328
v -217.762207 93.881882 -46.208527
v -218.485565 96.704697 -50.569023
v -219.183746 96.943466 -55.761429
v -219.669647 94.534195 -60.394447
v -219.813110 90.122429 -63.226662
v -219.575623 84.890327 -63.499184
v -219.020874 80.239815 -61.138985
v -218.297516 77.416985 -56.778496
v -209.676147 70.327431 -51.027512
v -208.834503 74.500427 -43.002892
v -208.586090 82.141815 -38.097351
v -208.997375 91.204086 -37.625351
v -209.958252 99.259018 -41.713326
v -211.211151 104.148293 -49.265930
v -212.420441 104.561852 -58.259453
v -213.262054 100.388855 -66.284073
v -213.510468 92.747482 -71.189606
v -213.099182 83.685211 -71.661636
v -212.138336 75.630264 -67.573654
v -210.885406 70.740990 -60.021057
v -199.432770 68.203667 -51.792809
v -198.460968 73.022232 -42.526772
v -198.174103 81.845734 -36.862343
v -198.649017 92.309944 -36.317314
v -199.758514 101.610985 -41.037712
v -201.205261 107.256638 -49.758713
v -202.601624 107.734161 -60.143524
v -203.573425 102.915604 -69.409561
v -203.860291 94.092110 -75.073990
v -203.385376 83.627899 -75.619026
v -202.275879 74.326859 -70.898636
v -200.829132 68.681198 -62.177643
v -189.613983 71.375992 -53.676872
v -188.772369 75.548981 -45.652260
v -188.523926 83.190369 -40.746727
v -188.935242 92.252640 -40.274712
v -189.896057 100.307571 -44.362701
v -191.148987 105.196838 -51.915306
v -192.358276 105.610397 -60.908821
v -193.199890 101.437408 -68.933441
v -193.448303 93.796028 -73.838974
v -193.037018 84.733757 -74.310997
v -192.076172 76.678825 -70.223015
v -190.823242 71.789536 -62.670410
v -182.850632 78.994370 -56.174904
v -182.364746 81.403641 -51.541893
v -182.221313 85.815392 -48.709671
v -182.458771 91.047501 -48.437164
v -183.013504 95.698013 -50.797363
v -183.736893 98.520844 -55.157852
v -184.435059 98.759613 -60.350266
v -184.920975 96.350327 -64.983276
v -185.064407 91.938583 -67.815498
v -184.826935 86.706474 -68.088013
v -184.272202 82.055954 -65.727821
v -183.548828 79.233124 -61.367325
v -180.955032 89.017471 -58.617538
v -176.702225 81.872337 -158.645721
v -180.875824 72.522850 -160.923981
v -183.108994 73.882881 -156.377686
v -183.208191 76.901031 -152.089737
v -181.146805 80.768616 -149.209106
v -177.477158 84.449280 -148.507614
v -173.182587 86.956825 -150.173279
v -169.413773 87.619339 -153.759735
v -167.180603 86.259308 -158.306030
v -167.081421 83.241150 -162.593979
v -169.142822 79.373589 -165.474625
v -172.812424 75.692902 -166.176102
v -177.107010 73.185356 -164.510437
v -180.816269 62.076057 -159.984039
v -184.684250 64.431702 -152.109619
v -184.856049 69.659309 -144.682693
v -181.285583 76.358139 -139.693268
v -174.929596 82.733261 -138.478287
v -167.491180 87.076447 -141.363281
v -160.963425 88.223969 -147.575241
v -157.095428 85.868317 -155.449631
v -156.923645 80.640717 -162.876587
v -160.494095 73.941887 -167.865997
v -166.850067 67.566772 -169.080994
v -174.288483 63.223579 -166.195984
v -176.539505 53.331177 -156.077759
v -181.005875 56.051247 -146.985184
v -181.204224 62.087570 -138.409286
v -177.081436 69.822716 -132.648010
v -169.742188 77.184067 -131.245056
v -161.153030 82.199150 -134.576355
v -153.615417 83.524185 -141.749313
v -149.149048 80.804123 -150.841904
v -148.950699 74.767807 -159.417801
v -153.073486 67.032661 -165.179092
v -160.412720 59.671318 -166.582031
v -169.001877 54.656219 -163.250732
v -169.191513 48.631409 -150.251862
v -173.059494 50.987053 -142.377441
v -173.231277 56.214653 -134.950516
v -169.660828 62.913490 -129.961075
v -163.304840 69.288605 -128.746109
v -155.866409 73.631805 -131.631104
v -149.338654 74.779312 -137.843048
v -145.470673 72.423676 -145.717453
v -145.298889 67.196068 -153.144409
v -148.869324 60.497231 -158.133820
v -155.225296 54.122124 -159.348816
v -162.663712 49.778923 -156.463806
v -160.741150 49.236031 -144.067352
v -162.974319 50.596054 -139.521042
v -163.073517 53.614220 -135.233109
v -161.012100 57.481789 -132.352463
v -157.342484 61.162468 -131.650986
v -153.047897 63.670013 -133.316650
v -149.279083 64.332520 -136.903122
v -147.045914 62.972496 -141.449417
v -146.946716 59.954338 -145.737366
v -149.008133 56.086769 -148.617996
v -152.677734 52.406090 -149.319473
v -156.972336 49.898544 -147.653824
v -153.452698 54.983032 -139.181366

# UV coordinates
vt 0.685197 0.512621
vt 0.695067 0.464413
vt 0.702871 0.469237
vt 0.709617 0.476488
vt 0.713612 0.485412
vt 0.716890 0.495863
vt 0.721409 0.507882
vt 0.723639 0.520464
vt 0.722006 0.532720
vt 0.717836 0.543710
vt 0.709818 0.552874
vt 0.699076 0.559032
vt 0.686968 0.561907
vt 0.673197 0.562422
vt 0.658614 0.560282
vt 0.648860 0.553621
vt 0.638773 0.546641
vt 0.632551 0.495453
vt 0.638050 0.484239
vt 0.646727 0.475264
vt 0.656830 0.468043
vt 0.667340 0.463033
vt 0.677356 0.460741
vt 0.686391 0.461359
vt 0.728258 0.423043
vt 0.735654 0.435897
vt 0.740577 0.450301
vt 0.742648 0.465594
vt 0.747140 0.483584
vt 0.752782 0.504186
vt 0.754769 0.528432
vt 0.752051 0.553408
vt 0.743139 0.575112
vt 0.727466 0.590753
vt 0.706363 0.599878
vt 0.682338 0.603687
vt 0.658073 0.603540
vt 0.634969 0.599623
vt 0.613778 0.591703
vt 0.595591 0.578043
vt 0.587058 0.449438
vt 0.604511 0.431980
vt 0.627065 0.417628
vt 0.653705 0.406191
vt 0.680746 0.400642
vt 0.703478 0.403066
vt 0.719152 0.412074
vt 0.765290 0.399519
vt 0.769821 0.415404
vt 0.771641 0.430202
vt 0.773311 0.449366
vt 0.775579 0.474065
vt 0.778425 0.492094
vt 0.784130 0.535910
vt 0.780803 0.572569
vt 0.768107 0.605504
vt 0.745824 0.626654
vt 0.718428 0.642365
vt 0.682473 0.645286
vt 0.647841 0.645589
vt 0.614862 0.640719
vt 0.586348 0.631245
vt 0.565173 0.615783
vt 0.553136 0.403152
vt 0.579430 0.383794
vt 0.613031 0.362248
vt 0.656556 0.344818
vt 0.700818 0.343446
vt 0.736763 0.359931
vt 0.757746 0.382288
vt 0.806922 0.364740
vt 0.814142 0.386713
vt 0.816628 0.407801
vt 0.817422 0.434317
vt 0.819569 0.467333
vt 0.818834 0.504749
vt 0.820692 0.548437
vt 0.817692 0.596184
vt 0.801010 0.637888
vt 0.774132 0.665427
vt 0.734344 0.685196
vt 0.690438 0.695005
vt 0.646555 0.698729
vt 0.602040 0.701266
vt 0.564500 0.693371
vt 0.527081 0.677803
vt 0.516268 0.337643
vt 0.550718 0.315326
vt 0.594643 0.290592
vt 0.652863 0.269822
vt 0.715668 0.275999
vt 0.765664 0.307387
vt 0.792865 0.339117
vt 0.843040 0.314305
vt 0.860958 0.345262
vt 0.866743 0.380249
vt 0.871217 0.418544
vt 0.875145 0.464488
vt 0.868686 0.514971
vt 0.864949 0.567876
vt 0.857825 0.621351
vt 0.834865 0.670990
vt 0.801478 0.711053
vt 0.752258 0.737209
vt 0.700352 0.750326
vt 0.648924 0.765022
vt 0.589106 0.777738
vt 0.532818 0.779408
vt 0.477718 0.772545
vt 0.472871 0.246116
vt 0.517575 0.226788
vt 0.570117 0.204883
vt 0.641762 0.193589
vt 0.721702 0.211055
vt 0.782735 0.247016
vt 0.819133 0.281797
vt 0.867409 0.270186
vt 0.891739 0.311100
vt 0.907873 0.355292
vt 0.919014 0.405541
vt 0.926351 0.463632
vt 0.918435 0.525422
vt 0.908769 0.585903
vt 0.893768 0.644310
vt 0.867890 0.699261
vt 0.826701 0.749077
vt 0.772172 0.783248
vt 0.715109 0.805531
vt 0.655754 0.828972
vt 0.583987 0.853357
vt 0.506753 0.868097
vt 0.441506 0.877362
vt 0.431776 0.154741
vt 0.487485 0.137203
vt 0.551466 0.131523
vt 0.635168 0.136111
vt 0.724837 0.161072
vt 0.791537 0.196211
vt 0.835713 0.231299
vt 0.884203 0.245250
vt 0.914027 0.290518
vt 0.937895 0.341241
vt 0.954807 0.400563
vt 0.962470 0.466700
vt 0.957260 0.533249
vt 0.943754 0.596927
vt 0.922288 0.657862
vt 0.891076 0.714008
vt 0.846807 0.764449
vt 0.790972 0.804822
vt 0.729767 0.834977
vt 0.661153 0.862390
vt 0.582118 0.887605
vt 0.500648 0.907565
vt 0.433392 0.927852
vt 0.427003 0.116189
vt 0.488993 0.110665
vt 0.559880 0.107093
vt 0.645564 0.113210
vt 0.730864 0.135205
vt 0.797577 0.168964
vt 0.846210 0.205052
vt 0.901143 0.229997
vt 0.936925 0.277839
vt 0.965748 0.334368
vt 0.984565 0.399591
vt 0.990623 0.469593
vt 0.984424 0.537930
vt 0.968838 0.601841
vt 0.945116 0.661478
vt 0.913057 0.716273
vt 0.872697 0.766405
vt 0.822528 0.813857
vt 0.762304 0.855128
vt 0.693584 0.890676
vt 0.617704 0.922128
vt 0.534240 0.958360
vt 0.475582 0.984422
vt 0.450025 0.057184
vt 0.511707 0.065541
vt 0.580179 0.070446
vt 0.669428 0.089561
vt 0.745486 0.116454
vt 0.808392 0.151308
vt 0.858696 0.188672
vt 0.032302 0.402482
vt 0.076366 0.389867
vt 0.099619 0.424024
vt 0.059733 0.447074
vt 0.132932 0.450604
vt 0.101487 0.482847
vt 0.173880 0.468263
vt 0.154863 0.507386
vt 0.218985 0.475928
vt 0.214751 0.519150
vt 0.264377 0.473046
vt 0.274488 0.515453
vt 0.306482 0.459391
vt 0.328879 0.495221
vt 0.342365 0.435679
vt 0.375012 0.460491
vt 0.369713 0.403114
vt 0.411264 0.415001
vt 0.386613 0.363225
vt 0.435269 0.360344
vt 0.391420 0.317898
vt 0.443859 0.296508
vt 0.382919 0.269469
vt 0.435443 0.229182
vt 0.360592 0.221026
vt 0.408631 0.162474
vt 0.325208 0.177142
vt 0.362518 0.101057
vt 0.279845 0.144279
vt 0.290668 0.052292
vt 0.229928 0.129209
vt 0.230782 0.034509
vt 0.225666 0.034384
vt 0.226953 0.129067
vt 0.178471 0.136586
vt 0.170631 0.050793
vt 0.135931 0.164398
vt 0.123211 0.093021
vt 0.101779 0.206654
vt 0.070746 0.161562
vt 0.077680 0.255416
vt 0.039590 0.230811
vt 0.065011 0.304187
vt 0.022547 0.294999
vt 0.064583 0.349515
vt 0.019883 0.351578
vt 0.140917 0.359065
vt 0.154060 0.378542
vt 0.172378 0.393499
vt 0.194505 0.403251
vt 0.218796 0.407393
vt 0.243422 0.405777
vt 0.266506 0.398498
vt 0.286248 0.385885
vt 0.301069 0.368513
vt 0.309714 0.347248
vt 0.311344 0.323298
vt 0.305611 0.298244
vt 0.292732 0.274044
vt 0.273592 0.252993
vt 0.249806 0.237568
vt 0.223600 0.230003
vt 0.222445 0.229952
vt 0.196370 0.232006
vt 0.172880 0.243156
vt 0.153825 0.261784
vt 0.140520 0.285287
vt 0.133789 0.310854
vt 0.133964 0.336056
vt 0.219127 0.323748
vt 0.169747 0.843708
vt 0.169617 0.796579
vt 0.193371 0.802960
vt 0.210710 0.820202
vt 0.216987 0.843692
vt 0.210780 0.867180
vt 0.193496 0.884457
vt 0.169784 0.890909
vt 0.146064 0.884507
vt 0.128729 0.867267
vt 0.122435 0.843815
vt 0.128601 0.820450
vt 0.145784 0.803075
vt 0.169398 0.747635
vt 0.217580 0.760346
vt 0.252948 0.795394
vt 0.266034 0.843436
vt 0.253259 0.891584
vt 0.218084 0.926862
vt 0.169986 0.939873
vt 0.121826 0.927136
vt 0.086468 0.892095
vt 0.073366 0.844076
vt 0.086125 0.795948
vt 0.121288 0.760663
vt 0.169227 0.696608
vt 0.242911 0.716053
vt 0.297029 0.769719
vt 0.317030 0.843283
vt 0.297490 0.916979
vt 0.243703 0.970989
vt 0.170147 0.990901
vt 0.096483 0.971434
vt 0.042382 0.917781
vt 0.022367 0.844239
vt 0.041891 0.770551
vt 0.095670 0.716537
vt 0.373615 0.494269
vt 0.373341 0.545300
vt 0.325137 0.557917
vt 0.299904 0.513560
vt 0.289689 0.592877
vt 0.245671 0.567087
vt 0.276503 0.640862
vt 0.225498 0.640579
vt 0.289159 0.688985
vt 0.244858 0.714287
vt 0.324216 0.724307
vt 0.298497 0.768399
vt 0.372277 0.737507
vt 0.371997 0.788519
vt 0.420534 0.724898
vt 0.445747 0.769251
vt 0.456011 0.689922
vt 0.500017 0.715712
vt 0.469209 0.641909
vt 0.520202 0.642186
vt 0.456537 0.593753
vt 0.500817 0.568445
vt 0.421430 0.558409
vt 0.447132 0.514331
vt 0.373008 0.594251
vt 0.349245 0.600606
vt 0.331881 0.617808
vt 0.325575 0.641253
vt 0.331728 0.664623
vt 0.348931 0.682012
vt 0.372752 0.688564
vt 0.396485 0.682193
vt 0.413846 0.664981
vt 0.420156 0.641529
vt 0.414011 0.618154
vt 0.396840 0.600766
vt 0.372872 0.641394

# vertex normals
vn -0.167137 0.896329 0.410681
vn -0.042131 0.980302 0.192960
vn -0.080472 0.970563 0.227007
vn -0.134782 0.952760 0.272179
vn -0.154462 0.935066 0.319052
vn -0.155255 0.913677 0.375621
vn -0.180502 0.863025 0.471812
vn -0.199206 0.820522 0.535781
vn -0.197123 0.797054 0.570830
vn -0.206381 0.783910 0.585570
vn -0.235778 0.786538 0.570760
vn -0.266482 0.790220 0.551851
vn -0.276686 0.799757 0.532760
vn -0.258279 0.819501 0.511577
vn -0.230489 0.846183 0.480467
vn -0.202647 0.877653 0.434350
vn -0.162727 0.913725 0.372325
vn -0.119483 0.955776 0.268731
vn -0.088327 0.980777 0.173995
vn -0.063414 0.988103 0.140113
vn -0.044048 0.990283 0.131906
vn -0.023735 0.989871 0.139973
vn -0.012292 0.986749 0.161790
vn -0.062208 0.983579 -0.169419
vn -0.210430 0.976346 -0.049670
vn -0.325794 0.943460 0.061169
vn -0.346271 0.926216 0.149066
vn -0.341915 0.911371 0.229121
vn -0.398387 0.826753 0.397200
vn -0.404247 0.735471 0.543753
vn -0.372573 0.681092 0.630320
vn -0.338653 0.673479 0.657070
vn -0.311014 0.693654 0.649704
vn -0.323201 0.717192 0.617396
vn -0.299221 0.753218 0.585773
vn -0.221081 0.792266 0.568716
vn -0.137497 0.821023 0.554090
vn -0.040965 0.861709 0.505746
vn 0.097724 0.922938 0.372338
vn 0.236565 0.959384 0.153684
vn 0.320989 0.945594 -0.053090
vn 0.349033 0.918436 -0.186147
vn 0.315169 0.909580 -0.270798
vn 0.219749 0.927473 -0.302495
vn 0.088595 0.960485 -0.263856
vn -0.132391 0.781661 -0.609491
vn -0.388251 0.803495 -0.451284
vn -0.581476 0.772790 -0.254325
vn -0.662930 0.740203 -0.112352
vn -0.673765 0.738731 -0.017798
vn -0.684346 0.712870 0.153252
vn -0.615232 0.652695 0.442130
vn -0.467564 0.648033 0.601196
vn -0.377207 0.692459 0.614992
vn -0.349189 0.735540 0.580559
vn -0.366059 0.762871 0.532944
vn -0.297683 0.778485 0.552582
vn -0.127722 0.799279 0.587231
vn 0.037469 0.802491 0.595486
vn 0.220791 0.814499 0.536509
vn 0.392071 0.839254 0.376739
vn 0.561508 0.823755 0.078338
vn 0.640800 0.735348 -0.220544
vn 0.638296 0.644671 -0.420687
vn 0.554012 0.604503 -0.572405
vn 0.367299 0.638890 -0.675952
vn 0.122298 0.711558 -0.691902
vn -0.109561 0.507943 -0.854394
vn -0.416955 0.524488 -0.742335
vn -0.684066 0.514382 -0.517171
vn -0.811562 0.496648 -0.307746
vn -0.839502 0.506745 -0.196074
vn -0.828875 0.559391 0.006888
vn -0.720426 0.621048 0.308684
vn -0.522518 0.685581 0.506906
vn -0.400711 0.750066 0.526149
vn -0.375398 0.797081 0.473011
vn -0.362160 0.812950 0.456018
vn -0.252494 0.826056 0.503864
vn -0.047728 0.834530 0.548892
vn 0.136985 0.832612 0.536649
vn 0.304212 0.832398 0.463215
vn 0.474741 0.829901 0.293063
vn 0.604148 0.796847 -0.006279
vn 0.650669 0.693591 -0.309129
vn 0.641547 0.572905 -0.510095
vn 0.589959 0.475426 -0.652624
vn 0.430721 0.449693 -0.782467
vn 0.181771 0.476171 -0.860361
vn -0.008911 0.424167 -0.905540
vn -0.332147 0.403054 -0.852776
vn -0.635133 0.399491 -0.661070
vn -0.801437 0.422259 -0.423552
vn -0.837251 0.473285 -0.273884
vn -0.844584 0.528787 -0.084043
vn -0.776523 0.594027 0.210103
vn -0.617930 0.664163 0.420773
vn -0.480741 0.735873 0.476844
vn -0.422767 0.774359 0.470782
vn -0.346096 0.794057 0.499692
vn -0.194980 0.819487 0.538909
vn 0.006990 0.841351 0.540443
vn 0.178614 0.853652 0.489260
vn 0.306243 0.870017 0.386376
vn 0.426636 0.884775 0.187497
vn 0.520223 0.848129 -0.100229
vn 0.545686 0.752940 -0.367842
vn 0.539230 0.654542 -0.529912
vn 0.532488 0.564889 -0.630362
vn 0.458005 0.485968 -0.744357
vn 0.266120 0.443460 -0.855876
vn 0.036028 0.367974 -0.929138
vn -0.292155 0.306068 -0.906073
vn -0.594210 0.300956 -0.745882
vn -0.771037 0.363335 -0.522963
vn -0.831026 0.445798 -0.332656
vn -0.859475 0.500168 -0.105522
vn -0.835569 0.521101 0.174005
vn -0.737833 0.549702 0.391702
vn -0.630493 0.576171 0.520101
vn -0.513897 0.584794 0.627635
vn -0.356381 0.605364 0.711707
vn -0.161365 0.637821 0.753091
vn 0.058103 0.657272 0.751410
vn 0.266619 0.676931 0.686060
vn 0.444283 0.719224 0.534162
vn 0.612620 0.753090 0.239901
vn 0.681046 0.715382 -0.156220
vn 0.637569 0.639123 -0.430149
vn 0.556806 0.611954 -0.561675
vn 0.489697 0.617876 -0.615164
vn 0.433073 0.562743 -0.704108
vn 0.289997 0.460590 -0.838903
vn 0.012309 -0.195491 -0.980628
vn -0.313212 -0.226678 -0.922234
vn -0.604213 -0.187452 -0.774460
vn -0.799883 -0.090710 -0.593262
vn -0.920433 -0.000042 -0.390900
vn -0.989431 0.068242 -0.127941
vn -0.984039 0.080611 0.158649
vn -0.913849 0.030517 0.404906
vn -0.780262 -0.076184 0.620795
vn -0.558472 -0.168574 0.812214
vn -0.308940 -0.179637 0.933963
vn -0.079960 -0.168354 0.982478
vn 0.158916 -0.200717 0.966674
vn 0.415006 -0.250025 0.874790
vn 0.666336 -0.253396 0.701275
vn 0.920338 -0.230216 0.316194
vn 0.947741 -0.273624 -0.164063
vn 0.823922 -0.314634 -0.471336
vn 0.723909 -0.270600 -0.634612
vn 0.623545 -0.161243 -0.764979
vn 0.497132 -0.094577 -0.862505
vn 0.298950 -0.126774 -0.945810
vn -0.022263 -0.847082 -0.530996
vn -0.210116 -0.826909 -0.521606
vn -0.395299 -0.785397 -0.476330
vn -0.541232 -0.742190 -0.395250
vn -0.653794 -0.706280 -0.271516
vn -0.727750 -0.677186 -0.108624
vn -0.732449 -0.677287 0.069286
vn -0.652276 -0.724056 0.224230
vn -0.497891 -0.795968 0.344296
vn -0.295971 -0.853063 0.429749
vn -0.101670 -0.873872 0.475406
vn 0.025911 -0.875420 0.482667
vn 0.109205 -0.893974 0.434609
vn 0.174884 -0.924486 0.338734
vn 0.217276 -0.951392 0.218278
vn 0.256429 -0.960506 0.108042
vn 0.275833 -0.961134 -0.011724
vn 0.268128 -0.958721 -0.094662
vn 0.271610 -0.938633 -0.212596
vn 0.261232 -0.908229 -0.326922
vn 0.229866 -0.875200 -0.425661
vn 0.136188 -0.855224 -0.500044
vn 0.008747 -0.984697 -0.174053
vn -0.055070 -0.981865 -0.181408
vn -0.121143 -0.977662 -0.171761
vn -0.176301 -0.973837 -0.143386
vn -0.211654 -0.971950 -0.102546
vn -0.225348 -0.972520 -0.058511
vn -0.216108 -0.976262 -0.014514
vn -0.180958 -0.983043 0.029675
vn -0.122774 -0.989900 0.070885
vn -0.053783 -0.992864 0.106431
vn 0.010461 -0.991214 0.131855
vn 0.057681 -0.988385 0.140599
vn 0.085161 -0.987704 0.131101
vn 0.102656 -0.988886 0.107545
vn 0.114034 -0.990497 0.076893
vn 0.120701 -0.991859 0.040577
vn 0.124945 -0.992156 0.003937
vn 0.123283 -0.991921 -0.029886
vn 0.115252 -0.991246 -0.064409
vn 0.106386 -0.989369 -0.099149
vn 0.092225 -0.987227 -0.129917
vn 0.060471 -0.985967 -0.155604
vn 0.035211 -0.997668 -0.058476
vn 0.017769 -0.998172 -0.057759
vn 0.000234 -0.998649 -0.051958
vn -0.014788 -0.999001 -0.042163
vn -0.024222 -0.999191 -0.032103
vn -0.027154 -0.999319 -0.025002
vn -0.024568 -0.999509 -0.019460
vn -0.016658 -0.999792 -0.011731
vn -0.002907 -0.999995 -0.001090
vn 0.016233 -0.999814 0.010407
vn 0.037736 -0.999092 0.019788
vn 0.055764 -0.998141 0.024590
vn 0.066942 -0.997446 0.024894
vn 0.073050 -0.997088 0.021904
vn 0.076913 -0.996908 0.016093
vn 0.079391 -0.996815 0.007579
vn 0.080210 -0.996771 -0.003712
vn 0.078967 -0.996732 -0.017050
vn 0.075625 -0.996693 -0.029725
vn 0.070396 -0.996716 -0.040030
vn 0.062532 -0.996871 -0.048349
vn 0.050729 -0.997204 -0.054863
vn 0.045028 -0.998877 -0.014710
vn -0.707107 -0.000000 -0.707107
vn -0.599227 -0.530900 -0.599227
vn -0.786928 -0.459773 -0.411525
vn -0.924335 -0.265450 -0.274118
vn -0.974630 -0.000000 -0.223824
vn -0.924335 0.265450 -0.274118
vn -0.786928 0.459773 -0.411525
vn -0.599227 0.530900 -0.599227
vn -0.411525 0.459773 -0.786928
vn -0.274118 0.265450 -0.924335
vn -0.223824 0.000000 -0.974630
vn -0.274118 -0.265450 -0.924335
vn -0.411525 -0.459773 -0.786928
vn -0.341067 -0.875983 -0.341067
vn -0.650774 -0.758624 -0.031360
vn -0.877495 -0.437992 0.195361
vn -0.960481 -0.000000 0.278347
vn -0.877495 0.437991 0.195361
vn -0.650774 0.758623 -0.031360
vn -0.341067 0.875983 -0.341067
vn -0.031361 0.758624 -0.650774
vn 0.195361 0.437992 -0.877495
vn 0.278347 0.000001 -0.960481
vn 0.195361 -0.437991 -0.877495
vn -0.031360 -0.758623 -0.650774
vn 0.000000 -1.000000 -0.000000
vn -0.353553 -0.866025 0.353554
vn -0.612372 -0.500000 0.612372
vn -0.707107 -0.000000 0.707107
vn -0.612373 0.500000 0.612373
vn -0.353554 0.866025 0.353554
vn -0.000000 1.000000 0.000000
vn 0.353553 0.866026 -0.353553
vn 0.612372 0.500001 -0.612372
vn 0.707107 0.000001 -0.707107
vn 0.612373 -0.499999 -0.612373
vn 0.353554 -0.866025 -0.353554
vn 0.341067 -0.875983 0.341067
vn 0.031360 -0.758624 0.650774
vn -0.195361 -0.437992 0.877495
vn -0.278347 -0.000000 0.960481
vn -0.195361 0.437991 0.877495
vn 0.031360 0.758623 0.650774
vn 0.341067 0.875983 0.341067
vn 0.650773 0.758624 0.031361
vn 0.877495 0.437992 -0.195361
vn 0.960481 0.000001 -0.278347
vn 0.877495 -0.437991 -0.195361
vn 0.650774 -0.758623 0.031360
vn 0.599227 -0.530900 0.599227
vn 0.411525 -0.459773 0.786928
vn 0.274118 -0.265450 0.924335
vn 0.223824 -0.000000 0.974630
vn 0.274118 0.265450 0.924335
vn 0.411525 0.459773 0.786928
vn 0.599226 0.530900 0.599227
vn 0.786928 0.459773 0.411526
vn 0.924335 0.265450 0.274118
vn 0.974630 0.000000 0.223824
vn 0.924335 -0.265450 0.274118
vn 0.786928 -0.459773 0.411525
vn 0.707107 0.000000 0.707107
vn 0.053007 0.492404 -0.868751
vn 0.113624 -0.042493 -0.992615
vn -0.158422 -0.003942 -0.987364
vn -0.375983 0.147474 -0.914816
vn -0.480763 0.371185 -0.794411
vn -0.444686 0.607247 -0.658411
vn -0.277420 0.792407 -0.543257
vn -0.023783 0.877053 -0.479805
vn 0.248262 0.838503 -0.485056
vn 0.465823 0.687086 -0.557603
vn 0.570603 0.463375 -0.678008
vn 0.534527 0.227313 -0.814008
vn 0.367261 0.042153 -0.929162
vn 0.138929 -0.521117 -0.842102
vn -0.309947 -0.457509 -0.833438
vn -0.668921 -0.207672 -0.713735
vn -0.841808 0.161450 -0.515067
vn -0.782282 0.550952 -0.290667
vn -0.506293 0.856466 -0.100664
vn -0.087793 0.996131 0.004032
vn 0.361082 0.932523 -0.004632
vn 0.720056 0.682686 -0.124335
vn 0.892943 0.313564 -0.323003
vn 0.833417 -0.075938 -0.547402
vn 0.557429 -0.381452 -0.737406
vn 0.129410 -0.866026 -0.482963
vn -0.383015 -0.793412 -0.473072
vn -0.792810 -0.508205 -0.336422
vn -0.990173 -0.086824 -0.109628
vn -0.922220 0.357821 0.146541
vn -0.607159 0.706588 0.363444
vn -0.129410 0.866025 0.482963
vn 0.383014 0.793412 0.473072
vn 0.792810 0.508205 0.336422
vn 0.990173 0.086825 0.109628
vn 0.922220 -0.357820 -0.146541
vn 0.607159 -0.706588 -0.363444
vn 0.087793 -0.996131 -0.004032
vn -0.361082 -0.932523 0.004632
vn -0.720056 -0.682685 0.124335
vn -0.892943 -0.313563 0.323003
vn -0.833417 0.075938 0.547402
vn -0.557429 0.381452 0.737406
vn -0.138929 0.521117 0.842102
vn 0.309946 0.457509 0.833438
vn 0.668921 0.207672 0.713735
vn 0.841807 -0.161450 0.515067
vn 0.782282 -0.550951 0.290667
vn 0.506294 -0.856466 0.100664
vn 0.023783 -0.877053 0.479805
vn -0.248263 -0.838502 0.485056
vn -0.465823 -0.687086 0.557604
vn -0.570603 -0.463375 0.678008
vn -0.534527 -0.227313 0.814009
vn -0.367261 -0.042153 0.929162
vn -0.113624 0.042493 0.992615
vn 0.158422 0.003943 0.987364
vn 0.375982 -0.147474 0.914816
vn 0.480763 -0.371185 0.794411
vn 0.444686 -0.607247 0.658411
vn 0.277420 -0.792407 0.543257
vn -0.053007 -0.492404 0.868751
vn -0.852869 0.492404 0.173648
vn -0.988200 -0.042493 0.147155
vn -0.912717 -0.003942 0.408572
vn -0.786333 0.147475 0.599943
vn -0.642911 0.371185 0.669990
vn -0.520883 0.607247 0.599943
vn -0.452944 0.792407 0.408573
vn -0.457301 0.877053 0.147156
vn -0.532783 0.838502 -0.114262
vn -0.659167 0.687086 -0.305632
vn -0.802589 0.463375 -0.375679
vn -0.924618 0.227313 -0.305632
vn -0.992556 0.042153 -0.114262
vn -0.849366 -0.521117 0.083757
vn -0.724819 -0.457509 0.515095
vn -0.516285 -0.207672 0.830856
vn -0.279640 0.161450 0.946433
vn -0.078294 0.550952 0.830856
vn 0.033804 0.856466 0.515096
vn 0.026617 0.996131 0.083758
vn -0.097929 0.932523 -0.347579
vn -0.306463 0.682686 -0.663340
vn -0.543107 0.313564 -0.778917
vn -0.744454 -0.075938 -0.663341
vn -0.856553 -0.381452 -0.347580
vn -0.500000 -0.866026 -0.000000
vn -0.357821 -0.793412 0.492404
vn -0.119764 -0.508205 0.852868
vn 0.150384 -0.086824 0.984808
vn 0.380236 0.357821 0.852869
vn 0.508204 0.706588 0.492404
vn 0.500000 0.866025 0.000000
vn 0.357821 0.793412 -0.492403
vn 0.119764 0.508205 -0.852868
vn -0.150383 0.086825 -0.984808
vn -0.380236 -0.357820 -0.852869
vn -0.508204 -0.706588 -0.492405
vn -0.026618 -0.996131 -0.083758
vn 0.097929 -0.932523 0.347580
vn 0.306463 -0.682686 0.663341
vn 0.543108 -0.313563 0.778917
vn 0.744454 0.075938 0.663341
vn 0.856553 0.381452 0.347580
vn 0.849366 0.521117 -0.083757
vn 0.724819 0.457509 -0.515095
vn 0.516285 0.207672 -0.830856
vn 0.279641 -0.161450 -0.946433
vn 0.078294 -0.550951 -0.830857
vn -0.033804 -0.856466 -0.515096
vn 0.457300 -0.877053 -0.147156
vn 0.532783 -0.838502 0.114262
vn 0.659168 -0.687086 0.305632
vn 0.802589 -0.463375 0.375679
vn 0.924618 -0.227313 0.305632
vn 0.992556 -0.042153 0.114262
vn 0.988200 0.042493 -0.147155
vn 0.912717 0.003942 -0.408572
vn 0.786333 -0.147474 -0.599943
vn 0.642912 -0.371185 -0.669990
vn 0.520883 -0.607247 -0.599944
vn 0.452945 -0.792407 -0.408573
vn 0.852869 -0.492404 -0.173648
vn -0.990065 -0.051746 0.130746
vn -0.797503 -0.561697 0.220192
vn -0.772042 -0.435452 0.462961
vn -0.764526 -0.204277 0.611368
vn -0.776969 0.069883 0.625648
vn -0.806038 0.313568 0.501974
vn -0.843942 0.461484 0.273485
vn -0.880527 0.473995 0.001405
vn -0.905988 0.347750 -0.241363
vn -0.913504 0.116575 -0.389770
vn -0.901060 -0.157585 -0.404051
vn -0.871992 -0.401271 -0.280377
vn -0.834087 -0.549186 -0.051889
vn -0.409055 -0.879404 0.243563
vn -0.367044 -0.671099 0.644131
vn -0.354643 -0.289661 0.889002
vn -0.375174 0.162702 0.912564
vn -0.423137 0.564782 0.708503
vn -0.485679 0.808842 0.331497
vn -0.546043 0.829485 -0.117435
vn -0.588054 0.621181 -0.518002
vn -0.600456 0.239744 -0.762874
vn -0.579924 -0.212620 -0.786435
vn -0.531962 -0.614700 -0.582375
vn -0.469419 -0.858760 -0.205369
vn 0.078191 -0.975412 0.206053
vn 0.126150 -0.737617 0.663331
vn 0.140307 -0.302178 0.942869
vn 0.116869 0.214230 0.969767
vn 0.062116 0.673234 0.736816
vn -0.009281 0.951846 0.306436
vn -0.078191 0.975412 -0.206053
vn -0.126150 0.737617 -0.663331
vn -0.140306 0.302178 -0.942869
vn -0.116869 -0.214229 -0.969767
vn -0.062116 -0.673234 -0.736816
vn 0.009281 -0.951846 -0.306436
vn 0.546043 -0.829485 0.117435
vn 0.588054 -0.621181 0.518003
vn 0.600456 -0.239743 0.762874
vn 0.579924 0.212621 0.786435
vn 0.531961 0.614701 0.582374
vn 0.469419 0.858760 0.205369
vn 0.409056 0.879404 -0.243563
vn 0.367045 0.671099 -0.644131
vn 0.354643 0.289662 -0.889002
vn 0.375174 -0.162702 -0.912564
vn 0.423137 -0.564782 -0.708503
vn 0.485679 -0.808842 -0.331497
vn 0.880527 -0.473995 -0.001405
vn 0.905988 -0.347749 0.241364
vn 0.913504 -0.116575 0.389771
vn 0.901060 0.157586 0.404051
vn 0.871992 0.401271 0.280377
vn 0.834088 0.549186 0.051889
vn 0.797503 0.561697 -0.220192
vn 0.772042 0.435452 -0.462961
vn 0.764526 0.204278 -0.611368
vn 0.776970 -0.069883 -0.625647
vn 0.806038 -0.313569 -0.501974
vn 0.843942 -0.461484 -0.273486
vn 0.990065 0.051746 -0.130746
vn -0.573680 0.663491 -0.480282
vn -0.786460 0.166740 -0.594709
vn -0.903478 0.238005 -0.356484
vn -0.908675 0.396155 -0.131798
vn -0.800658 0.598815 0.019147
vn -0.608371 0.791681 0.055904
vn -0.383337 0.923075 -0.031376
vn -0.185853 0.957791 -0.219306
vn -0.068835 0.886526 -0.457530
vn -0.063638 0.728376 -0.682216
vn -0.171655 0.525716 -0.833161
vn -0.363942 0.332850 -0.869918
vn -0.588976 0.201455 -0.782639
vn -0.772210 -0.332587 -0.541367
vn -0.965289 -0.214999 -0.148297
vn -0.973864 0.045949 0.222435
vn -0.795637 0.380336 0.471493
vn -0.478364 0.698565 0.532142
vn -0.107058 0.915365 0.388131
vn 0.218790 0.972646 0.078047
vn 0.411869 0.855058 -0.315022
vn 0.420444 0.594111 -0.685754
vn 0.242218 0.259723 -0.934813
vn -0.075056 -0.058505 -0.995462
vn -0.446361 -0.275306 -0.851451
vn -0.565650 -0.745010 -0.353554
vn -0.786065 -0.610775 0.095164
vn -0.795853 -0.312884 0.518383
vn -0.592394 0.068845 0.802702
vn -0.230203 0.432126 0.871937
vn 0.193670 0.679620 0.707537
vn 0.565650 0.745010 0.353554
vn 0.786064 0.610775 -0.095164
vn 0.795854 0.312884 -0.518383
vn 0.592394 -0.068844 -0.802701
vn 0.230204 -0.432126 -0.871937
vn -0.193670 -0.679620 -0.707538
vn -0.218790 -0.972646 -0.078047
vn -0.411869 -0.855058 0.315022
vn -0.420444 -0.594110 0.685755
vn -0.242217 -0.259723 0.934813
vn 0.075056 0.058506 0.995462
vn 0.446362 0.275306 0.851451
vn 0.772210 0.332586 0.541367
vn 0.965289 0.215000 0.148298
vn 0.973864 -0.045948 -0.222435
vn 0.795637 -0.380336 -0.471493
vn 0.478365 -0.698564 -0.532142
vn 0.107058 -0.915365 -0.388131
vn 0.185853 -0.957791 0.219305
vn 0.068835 -0.886526 0.457530
vn 0.063638 -0.728375 0.682217
vn 0.171654 -0.525716 0.833161
vn 0.363941 -0.332850 0.869918
vn 0.588976 -0.201455 0.782639
vn 0.786460 -0.166740 0.594709
vn 0.903478 -0.238005 0.356484
vn 0.908675 -0.396155 0.131798
vn 0.800659 -0.598815 -0.019147
vn 0.608371 -0.791681 -0.055904
vn 0.383337 -0.923075 0.031376
vn 0.573680 -0.663491 0.480281

# Mesh
g Slime_LP
usemtl Material _2
f 1/1/1 2/2/2 3/3/3
f 1/1/1 3/3/3 4/4/4
f 1/1/1 4/4/4 5/5/5
f 1/1/1 5/5/5 6/6/6
f 1/1/1 6/6/6 7/7/7
f 1/1/1 7/7/7 8/8/8
f 1/1/1 8/8/8 9/9/9
f 1/1/1 9/9/9 10/10/10
f 1/1/1 10/10/10 11/11/11
f 1/1/1 11/11/11 12/12/12
f 1/1/1 12/12/12 13/13/13
f 1/1/1 13/13/13 14/14/14
f 1/1/1 14/14/14 15/15/15
f 1/1/1 15/15/15 16/16/16
f 1/1/1 16/16/16 17/17/17
f 1/1/1 17/18/17 18/19/18
f 1/1/1 18/19/18 19/20/19
f 1/1/1 19/20/19 20/21/20
f 1/1/1 20/21/20 21/22/21
f 1/1/1 21/22/21 22/23/22
f 1/1/1 22/23/22 23/24/23
f 1/1/1 23/24/23 2/2/2
f 3/3/3 2/2/2 24/25/24
f 24/25/24 25/26/25 3/3/3
f 4/4/4 3/3/3 25/26/25
f 25/26/25 26/27/26 4/4/4
f 5/5/5 4/4/4 26/27/26
f 26/27/26 27/28/27 5/5/5
f 6/6/6 5/5/5 27/28/27
f 27/28/27 28/29/28 6/6/6
f 7/7/7 6/6/6 28/29/28
f 28/29/28 29/30/29 7/7/7
f 8/8/8 7/7/7 29/30/29
f 29/30/29 30/31/30 8/8/8
f 9/9/9 8/8/8 30/31/30
f 30/31/30 31/32/31 9/9/9
f 10/10/10 9/9/9 31/32/31
f 31/32/31 32/33/32 10/10/10
f 11/11/11 10/10/10 32/33/32
f 32/33/32 33/34/33 11/11/11
f 12/12/12 11/11/11 33/34/33
f 33/34/33 34/35/34 12/12/12
f 13/13/13 12/12/12 34/35/34
f 34/35/34 35/36/35 13/13/13
f 14/14/14 13/13/13 35/36/35
f 35/36/35 36/37/36 14/14/14
f 15/15/15 14/14/14 36/37/36
f 36/37/36 37/38/37 15/15/15
f 16/16/16 15/15/15 37/38/37
f 37/38/37 38/39/38 16/16/16
f 17/17/17 16/16/16 38/39/38
f 38/39/38 39/40/39 17/17/17
f 18/19/18 17/18/17 39/41/39
f 39/41/39 40/42/40 18/19/18
f 19/20/19 18/19/18 40/42/40
f 40/42/40 41/43/41 19/20/19
f 20/21/20 19/20/19 41/43/41
f 41/43/41 42/44/42 20/21/20
f 21/22/21 20/21/20 42/44/42
f 42/44/42 43/45/43 21/22/21
f 22/23/22 21/22/21 43/45/43
f 43/45/43 44/46/44 22/23/22
f 23/24/23 22/23/22 44/46/44
f 44/46/44 45/47/45 23/24/23
f 2/2/2 23/24/23 45/47/45
f 45/47/45 24/25/24 2/2/2
f 25/26/25 24/25/24 46/48/46
f 46/48/46 47/49/47 25/26/25
f 26/27/26 25/26/25 47/49/47
f 47/49/47 48/50/48 26/27/26
f 27/28/27 26/27/26 48/50/48
f 48/50/48 49/51/49 27/28/27
f 28/29/28 27/28/27 49/51/49
f 49/51/49 50/52/50 28/29/28
f 29/30/29 28/29/28 50/52/50
f 50/52/50 51/53/51 29/30/29
f 30/31/30 29/30/29 51/53/51
f 51/53/51 52/54/52 30/31/30
f 31/32/31 30/31/30 52/54/52
f 52/54/52 53/55/53 31/32/31
f 32/33/32 31/32/31 53/55/53
f 53/55/53 54/56/54 32/33/32
f 33/34/33 32/33/32 54/56/54
f 54/56/54 55/57/55 33/34/33
f 34/35/34 33/34/33 55/57/55
f 55/57/55 56/58/56 34/35/34
f 35/36/35 34/35/34 56/58/56
f 56/58/56 57/59/57 35/36/35
f 36/37/36 35/36/35 57/59/57
f 57/59/57 58/60/58 36/37/36
f 37/38/37 36/37/36 58/60/58
f 58/60/58 59/61/59 37/38/37
f 38/39/38 37/38/37 59/61/59
f 59/61/59 60/62/60 38/39/38
f 39/40/39 38/39/38 60/62/60
f 60/62/60 61/63/61 39/40/39
f 40/42/40 39/41/39 61/64/61
f 61/64/61 62/65/62 40/42/40
f 41/43/41 40/42/40 62/65/62
f 62/65/62 63/66/63 41/43/41
f 42/44/42 41/43/41 63/66/63
f 63/66/63 64/67/64 42/44/42
f 43/45/43 42/44/42 64/67/64
f 64/67/64 65/68/65 43/45/43
f 44/46/44 43/45/43 65/68/65
f 65/68/65 66/69/66 44/46/44
f 45/47/45 44/46/44 66/69/66
f 66/69/66 67/70/67 45/47/45
f 24/25/24 45/47/45 67/70/67
f 67/70/67 46/48/46 24/25/24
f 47/49/47 46/48/46 68/71/68
f 68/71/68 69/72/69 47/49/47
f 48/50/48 47/49/47 69/72/69
f 69/72/69 70/73/70 48/50/48
f 49/51/49 48/50/48 70/73/70
f 70/73/70 71/74/71 49/51/49
f 50/52/50 49/51/49 71/74/71
f 71/74/71 72/75/72 50/52/50
f 51/53/51 50/52/50 72/75/72
f 72/75/72 73/76/73 51/53/51
f 52/54/52 51/53/51 73/76/73
f 73/76/73 74/77/74 52/54/52
f 53/55/53 52/54/52 74/77/74
f 74/77/74 75/78/75 53/55/53
f 54/56/54 53/55/53 75/78/75
f 75/78/75 76/79/76 54/56/54
f 55/57/55 54/56/54 76/79/76
f 76/79/76 77/80/77 55/57/55
f 56/58/56 55/57/55 77/80/77
f 77/80/77 78/81/78 56/58/56
f 57/59/57 56/58/56 78/81/78
f 78/81/78 79/82/79 57/59/57
f 58/60/58 57/59/57 79/82/79
f 79/82/79 80/83/80 58/60/58
f 59/61/59 58/60/58 80/83/80
f 80/83/80 81/84/81 59/61/59
f 60/62/60 59/61/59 81/84/81
f 81/84/81 82/85/82 60/62/60
f 61/63/61 60/62/60 82/85/82
f 82/85/82 83/86/83 61/63/61
f 62/65/62 61/64/61 83/87/83
f 83/87/83 84/88/84 62/65/62
f 63/66/63 62/65/62 84/88/84
f 84/88/84 85/89/85 63/66/63
f 64/67/64 63/66/63 85/89/85
f 85/89/85 86/90/86 64/67/64
f 65/68/65 64/67/64 86/90/86
f 86/90/86 87/91/87 65/68/65
f 66/69/66 65/68/65 87/91/87
f 87/91/87 88/92/88 66/69/66
f 67/70/67 66/69/66 88/92/88
f 88/92/88 89/93/89 67/70/67
f 46/48/46 67/70/67 89/93/89
f 89/93/89 68/71/68 46/48/46
f 69/72/69 68/71/68 90/94/90
f 90/94/90 91/95/91 69/72/69
f 70/73/70 69/72/69 91/95/91
f 91/95/91 92/96/92 70/73/70
f 71/74/71 70/73/70 92/96/92
f 92/96/92 93/97/93 71/74/71
f 72/75/72 71/74/71 93/97/93
f 93/97/93 94/98/94 72/75/72
f 73/76/73 72/75/72 94/98/94
f 94/98/94 95/99/95 73/76/73
f 74/77/74 73/76/73 95/99/95
f 95/99/95 96/100/96 74/77/74
f 75/78/75 74/77/74 96/100/96
f 96/100/96 97/101/97 75/78/75
f 76/79/76 75/78/75 97/101/97
f 97/101/97 98/102/98 76/79/76
f 77/80/77 76/79/76 98/102/98
f 98/102/98 99/103/99 77/80/77
f 78/81/78 77/80/77 99/103/99
f 99/103/99 100/104/100 78/81/78
f 79/82/79 78/81/78 100/104/100
f 100/104/100 101/105/101 79/82/79
f 80/83/80 79/82/79 101/105/101
f 101/105/101 102/106/102 80/83/80
f 81/84/81 80/83/80 102/106/102
f 102/106/102 103/107/103 81/84/81
f 82/85/82 81/84/81 103/107/103
f 103/107/103 104/108/104 82/85/82
f 83/86/83 82/85/82 104/108/104
f 104/108/104 105/109/105 83/86/83
f 84/88/84 83/87/83 105/110/105
f 105/110/105 106/111/106 84/88/84
f 85/89/85 84/88/84 106/111/106
f 106/111/106 107/112/107 85/89/85
f 86/90/86 85/89/85 107/112/107
f 107/112/107 108/113/108 86/90/86
f 87/91/87 86/90/86 108/113/108
f 108/113/108 109/114/109 87/91/87
f 88/92/88 87/91/87 109/114/109
f 109/114/109 110/115/110 88/92/88
f 89/93/89 88/92/88 110/115/110
f 110/115/110 111/116/111 89/93/89
f 68/71/68 89/93/89 111/116/111
f 111/116/111 90/94/90 68/71/68
f 91/95/91 90/94/90 112/117/112
f 112/117/112 113/118/113 91/95/91
f 92/96/92 91/95/91 113/118/113
f 113/118/113 114/119/114 92/96/92
f 93/97/93 92/96/92 114/119/114
f 114/119/114 115/120/115 93/97/93
f 94/98/94 93/97/93 115/120/115
f 115/120/115 116/121/116 94/98/94
f 95/99/95 94/98/94 116/121/116
f 116/121/116 117/122/117 95/99/95
f 96/100/96 95/99/95 117/122/117
f 117/122/117 118/123/118 96/100/96
f 97/101/97 96/100/96 118/123/118
f 118/123/118 119/124/119 97/101/97
f 98/102/98 97/101/97 119/124/119
f 119/124/119 120/125/120 98/102/98
f 99/103/99 98/102/98 120/125/120
f 120/125/120 121/126/121 99/103/99
f 100/104/100 99/103/99 121/126/121
f 121/126/121 122/127/122 100/104/100
f 101/105/101 100/104/100 122/127/122
f 122/127/122 123/128/123 101/105/101
f 102/106/102 101/105/101 123/128/123
f 123/128/123 124/129/124 102/106/102
f 103/107/103 102/106/102 124/129/124
f 124/129/124 125/130/125 103/107/103
f 104/108/104 103/107/103 125/130/125
f 125/130/125 126/131/126 104/108/104
f 105/109/105 104/108/104 126/131/126
f 126/131/126 127/132/127 105/109/105
f 106/111/106 105/110/105 127/133/127
f 127/133/127 128/134/128 106/111/106
f 107/112/107 106/111/106 128/134/128
f 128/134/128 129/135/129 107/112/107
f 108/113/108 107/112/107 129/135/129
f 129/135/129 130/136/130 108/113/108
f 109/114/109 108/113/108 130/136/130
f 130/136/130 131/137/131 109/114/109
f 110/115/110 109/114/109 131/137/131
f 131/137/131 132/138/132 110/115/110
f 111/116/111 110/115/110 132/138/132
f 132/138/132 133/139/133 111/116/111
f 90/94/90 111/116/111 133/139/133
f 133/139/133 112/117/112 90/94/90
f 113/118/113 112/117/112 134/140/134
f 134/140/134 135/141/135 113/118/113
f 114/119/114 113/118/113 135/141/135
f 135/141/135 136/142/136 114/119/114
f 115/120/115 114/119/114 136/142/136
f 136/142/136 137/143/137 115/120/115
f 116/121/116 115/120/115 137/143/137
f 137/143/137 138/144/138 116/121/116
f 117/122/117 116/121/116 138/144/138
f 138/144/138 139/145/139 117/122/117
f 118/123/118 117/122/117 139/145/139
f 139/145/139 140/146/140 118/123/118
f 119/124/119 118/123/118 140/146/140
f 140/146/140 141/147/141 119/124/119
f 120/125/120 119/124/119 141/147/141
f 141/147/141 142/148/142 120/125/120
f 121/126/121 120/125/120 142/148/142
f 142/148/142 143/149/143 121/126/121
f 122/127/122 121/126/121 143/149/143
f 143/149/143 144/150/144 122/127/122
f 123/128/123 122/127/122 144/150/144
f 144/150/144 145/151/145 123/128/123
f 124/129/124 123/128/123 145/151/145
f 145/151/145 146/152/146 124/129/124
f 125/130/125 124/129/124 146/152/146
f 146/152/146 147/153/147 125/130/125
f 126/131/126 125/130/125 147/153/147
f 147/153/147 148/154/148 126/131/126
f 127/132/127 126/131/126 148/154/148
f 148/154/148 149/155/149 127/132/127
f 128/134/128 127/133/127 149/156/149
f 149/156/149 150/157/150 128/134/128
f 129/135/129 128/134/128 150/157/150
f 150/157/150 151/158/151 129/135/129
f 130/136/130 129/135/129 151/158/151
f 151/158/151 152/159/152 130/136/130
f 131/137/131 130/136/130 152/159/152
f 152/159/152 153/160/153 131/137/131
f 132/138/132 131/137/131 153/160/153
f 153/160/153 154/161/154 132/138/132
f 133/139/133 132/138/132 154/161/154
f 154/161/154 155/162/155 133/139/133
f 112/117/112 133/139/133 155/162/155
f 155/162/155 134/140/134 112/117/112
f 135/141/135 134/140/134 156/163/156
f 156/163/156 157/164/157 135/141/135
f 136/142/136 135/141/135 157/164/157
f 157/164/157 158/165/158 136/142/136
f 137/143/137 136/142/136 158/165/158
f 158/165/158 159/166/159 137/143/137
f 138/144/138 137/143/137 159/166/159
f 159/166/159 160/167/160 138/144/138
f 139/145/139 138/144/138 160/167/160
f 160/167/160 161/168/161 139/145/139
f 140/146/140 139/145/139 161/168/161
f 161/168/161 162/169/162 140/146/140
f 141/147/141 140/146/140 162/169/162
f 162/169/162 163/170/163 141/147/141
f 142/148/142 141/147/141 163/170/163
f 163/170/163 164/171/164 142/148/142
f 143/149/143 142/148/142 164/171/164
f 164/171/164 165/172/165 143/149/143
f 144/150/144 143/149/143 165/172/165
f 165/172/165 166/173/166 144/150/144
f 145/151/145 144/150/144 166/173/166
f 166/173/166 167/174/167 145/151/145
f 146/152/146 145/151/145 167/174/167
f 167/174/167 168/175/168 146/152/146
f 147/153/147 146/152/146 168/175/168
f 168/175/168 169/176/169 147/153/147
f 148/154/148 147/153/147 169/176/169
f 169/176/169 170/177/170 148/154/148
f 149/155/149 148/154/148 170/177/170
f 170/177/170 171/178/171 149/155/149
f 150/157/150 149/156/149 171/179/171
f 171/179/171 172/180/172 150/157/150
f 151/158/151 150/157/150 172/180/172
f 172/180/172 173/181/173 151/158/151
f 152/159/152 151/158/151 173/181/173
f 173/181/173 174/182/174 152/159/152
f 153/160/153 152/159/152 174/182/174
f 174/182/174 175/183/175 153/160/153
f 154/161/154 153/160/153 175/183/175
f 175/183/175 176/184/176 154/161/154
f 155/162/155 154/161/154 176/184/176
f 176/184/176 177/185/177 155/162/155
f 134/140/134 155/162/155 177/185/177
f 177/185/177 156/163/156 134/140/134
f 157/189/157 156/186/156 178/187/178
f 178/187/178 179/188/179 157/189/157
f 158/191/158 157/189/157 179/188/179
f 179/188/179 180/190/180 158/191/158
f 159/193/159 158/191/158 180/190/180
f 180/190/180 181/192/181 159/193/159
f 160/195/160 159/193/159 181/192/181
f 181/192/181 182/194/182 160/195/160
f 161/197/161 160/195/160 182/194/182
f 182/194/182 183/196/183 161/197/161
f 162/199/162 161/197/161 183/196/183
f 183/196/183 184/198/184 162/199/162
f 163/201/163 162/199/162 184/198/184
f 184/198/184 185/200/185 163/201/163
f 164/203/164 163/201/163 185/200/185
f 185/200/185 186/202/186 164/203/164
f 165/205/165 164/203/164 186/202/186
f 186/202/186 187/204/187 165/205/165
f 166/207/166 165/205/165 187/204/187
f 187/204/187 188/206/188 166/207/166
f 167/209/167 166/207/166 188/206/188
f 188/206/188 189/208/189 167/209/167
f 168/211/168 167/209/167 189/208/189
f 189/208/189 190/210/190 168/211/168
f 169/213/169 168/211/168 190/210/190
f 190/210/190 191/212/191 169/213/169
f 170/215/170 169/213/169 191/212/191
f 191/212/191 192/214/192 170/215/170
f 171/217/171 170/215/170 192/214/192
f 192/214/192 193/216/193 171/217/171
f 172/221/172 171/218/171 193/219/193
f 193/219/193 194/220/194 172/221/172
f 173/223/173 172/221/172 194/220/194
f 194/220/194 195/222/195 173/223/173
f 174/225/174 173/223/173 195/222/195
f 195/222/195 196/224/196 174/225/174
f 175/227/175 174/225/174 196/224/196
f 196/224/196 197/226/197 175/227/175
f 176/229/176 175/227/175 197/226/197
f 197/226/197 198/228/198 176/229/176
f 177/231/177 176/229/176 198/228/198
f 198/228/198 199/230/199 177/231/177
f 156/186/156 177/231/177 199/230/199
f 199/230/199 178/187/178 156/186/156
f 179/188/179 178/187/178 200/232/200
f 200/232/200 201/233/201 179/188/179
f 180/190/180 179/188/179 201/233/201
f 201/233/201 202/234/202 180/190/180
f 181/192/181 180/190/180 202/234/202
f 202/234/202 203/235/203 181/192/181
f 182/194/182 181/192/181 203/235/203
f 203/235/203 204/236/204 182/194/182
f 183/196/183 182/194/182 204/236/204
f 204/236/204 205/237/205 183/196/183
f 184/198/184 183/196/183 205/237/205
f 205/237/205 206/238/206 184/198/184
f 185/200/185 184/198/184 206/238/206
f 206/238/206 207/239/207 185/200/185
f 186/202/186 185/200/185 207/239/207
f 207/239/207 208/240/208 186/202/186
f 187/204/187 186/202/186 208/240/208
f 208/240/208 209/241/209 187/204/187
f 188/206/188 187/204/187 209/241/209
f 209/241/209 210/242/210 188/206/188
f 189/208/189 188/206/188 210/242/210
f 210/242/210 211/243/211 189/208/189
f 190/210/190 189/208/189 211/243/211
f 211/243/211 212/244/212 190/210/190
f 191/212/191 190/210/190 212/244/212
f 212/244/212 213/245/213 191/212/191
f 192/214/192 191/212/191 213/245/213
f 213/245/213 214/246/214 192/214/192
f 193/216/193 192/214/192 214/246/214
f 214/246/214 215/247/215 193/216/193
f 194/220/194 193/219/193 215/248/215
f 215/248/215 216/249/216 194/220/194
f 195/222/195 194/220/194 216/249/216
f 216/249/216 217/250/217 195/222/195
f 196/224/196 195/222/195 217/250/217
f 217/250/217 218/251/218 196/224/196
f 197/226/197 196/224/196 218/251/218
f 218/251/218 219/252/219 197/226/197
f 198/228/198 197/226/197 219/252/219
f 219/252/219 220/253/220 198/228/198
f 199/230/199 198/228/198 220/253/220
f 220/253/220 221/254/221 199/230/199
f 178/187/178 199/230/199 221/254/221
f 221/254/221 200/232/200 178/187/178
f 222/255/222 201/233/201 200/232/200
f 222/255/222 202/234/202 201/233/201
f 222/255/222 203/235/203 202/234/202
f 222/255/222 204/236/204 203/235/203
f 222/255/222 205/237/205 204/236/204
f 222/255/222 206/238/206 205/237/205
f 222/255/222 207/239/207 206/238/206
f 222/255/222 208/240/208 207/239/207
f 222/255/222 209/241/209 208/240/208
f 222/255/222 210/242/210 209/241/209
f 222/255/222 211/243/211 210/242/210
f 222/255/222 212/244/212 211/243/211
f 222/255/222 213/245/213 212/244/212
f 222/255/222 214/246/214 213/245/213
f 222/255/222 215/247/215 214/246/214
f 222/255/222 216/249/216 215/248/215
f 222/255/222 217/250/217 216/249/216
f 222/255/222 218/251/218 217/250/217
f 222/255/222 219/252/219 218/251/218
f 222/255/222 220/253/220 219/252/219
f 222/255/222 221/254/221 220/253/220
f 222/255/222 200/232/200 221/254/221

# Mesh
g Oeil_LP
usemtl Material _2
f 223/256/223 224/257/224 225/258/225
f 223/256/223 225/258/225 226/259/226
f 223/256/223 226/259/226 227/260/227
f 223/256/223 227/260/227 228/261/228
f 223/256/223 228/261/228 229/262/229
f 223/256/223 229/262/229 230/263/230
f 223/256/223 230/263/230 231/264/231
f 223/256/223 231/264/231 232/265/232
f 223/256/223 232/265/232 233/266/233
f 223/256/223 233/266/233 234/267/234
f 223/256/223 234/267/234 235/268/235
f 223/256/223 235/268/235 224/257/224
f 225/258/225 224/257/224 236/269/236
f 236/269/236 237/270/237 225/258/225
f 226/259/226 225/258/225 237/270/237
f 237/270/237 238/271/238 226/259/226
f 227/260/227 226/259/226 238/271/238
f 238/271/238 239/272/239 227/260/227
f 228/261/228 227/260/227 239/272/239
f 239/272/239 240/273/240 228/261/228
f 229/262/229 228/261/228 240/273/240
f 240/273/240 241/274/241 229/262/229
f 230/263/230 229/262/229 241/274/241
f 241/274/241 242/275/242 230/263/230
f 231/264/231 230/263/230 242/275/242
f 242/275/242 243/276/243 231/264/231
f 232/265/232 231/264/231 243/276/243
f 243/276/243 244/277/244 232/265/232
f 233/266/233 232/265/232 244/277/244
f 244/277/244 245/278/245 233/266/233
f 234/267/234 233/266/233 245/278/245
f 245/278/245 246/279/246 234/267/234
f 235/268/235 234/267/234 246/279/246
f 246/279/246 247/280/247 235/268/235
f 224/257/224 235/268/235 247/280/247
f 247/280/247 236/269/236 224/257/224
f 237/270/237 236/269/236 248/281/248
f 248/281/248 249/282/249 237/270/237
f 238/271/238 237/270/237 249/282/249
f 249/282/249 250/283/250 238/271/238
f 239/272/239 238/271/238 250/283/250
f 250/283/250 251/284/251 239/272/239
f 240/273/240 239/272/239 251/284/251
f 251/284/251 252/285/252 240/273/240
f 241/274/241 240/273/240 252/285/252
f 252/285/252 253/286/253 241/274/241
f 242/275/242 241/274/241 253/286/253
f 253/286/253 254/287/254 242/275/242
f 243/276/243 242/275/242 254/287/254
f 254/287/254 255/288/255 243/276/243
f 244/277/244 243/276/243 255/288/255
f 255/288/255 256/289/256 244/277/244
f 245/278/245 244/277/244 256/289/256
f 256/289/256 257/290/257 245/278/245
f 246/279/246 245/278/245 257/290/257
f 257/290/257 258/291/258 246/279/246
f 247/280/247 246/279/246 258/291/258
f 258/291/258 259/292/259 247/280/247
f 236/269/236 247/280/247 259/292/259
f 259/292/259 248/281/248 236/269/236
f 249/296/249 248/293/248 260/294/260
f 260/294/260 261/295/261 249/296/249
f 250/298/250 249/296/249 261/295/261
f 261/295/261 262/297/262 250/298/250
f 251/300/251 250/298/250 262/297/262
f 262/297/262 263/299/263 251/300/251
f 252/302/252 251/300/251 263/299/263
f 263/299/263 264/301/264 252/302/252
f 253/304/253 252/302/252 264/301/264
f 264/301/264 265/303/265 253/304/253
f 254/306/254 253/304/253 265/303/265
f 265/303/265 266/305/266 254/306/254
f 255/308/255 254/306/254 266/305/266
f 266/305/266 267/307/267 255/308/255
f 256/310/256 255/308/255 267/307/267
f 267/307/267 268/309/268 256/310/256
f 257/312/257 256/310/256 268/309/268
f 268/309/268 269/311/269 257/312/257
f 258/314/258 257/312/257 269/311/269
f 269/311/269 270/313/270 258/314/258
f 259/316/259 258/314/258 270/313/270
f 270/313/270 271/315/271 259/316/259
f 248/293/248 259/316/259 271/315/271
f 271/315/271 260/294/260 248/293/248
f 261/295/261 260/294/260 272/317/272
f 272/317/272 273/318/273 261/295/261
f 262/297/262 261/295/261 273/318/273
f 273/318/273 274/319/274 262/297/262
f 263/299/263 262/297/262 274/319/274
f 274/319/274 275/320/275 263/299/263
f 264/301/264 263/299/263 275/320/275
f 275/320/275 276/321/276 264/301/264
f 265/303/265 264/301/264 276/321/276
f 276/321/276 277/322/277 265/303/265
f 266/305/266 265/303/265 277/322/277
f 277/322/277 278/323/278 266/305/266
f 267/307/267 266/305/266 278/323/278
f 278/323/278 279/324/279 267/307/267
f 268/309/268 267/307/267 279/324/279
f 279/324/279 280/325/280 268/309/268
f 269/311/269 268/309/268 280/325/280
f 280/325/280 281/326/281 269/311/269
f 270/313/270 269/311/269 281/326/281
f 281/326/281 282/327/282 270/313/270
f 271/315/271 270/313/270 282/327/282
f 282/327/282 283/328/283 271/315/271
f 260/294/260 271/315/271 283/328/283
f 283/328/283 272/317/272 260/294/260
f 284/329/284 273/318/273 272/317/272
f 284/329/284 274/319/274 273/318/273
f 284/329/284 275/320/275 274/319/274
f 284/329/284 276/321/276 275/320/275
f 284/329/284 277/322/277 276/321/276
f 284/329/284 278/323/278 277/322/277
f 284/329/284 279/324/279 278/323/278
f 284/329/284 280/325/280 279/324/279
f 284/329/284 281/326/281 280/325/280
f 284/329/284 282/327/282 281/326/281
f 284/329/284 283/328/283 282/327/282
f 284/329/284 272/317/272 283/328/283
f 285/256/285 286/257/286 287/258/287
f 285/256/285 287/258/287 288/259/288
f 285/256/285 288/259/288 289/260/289
f 285/256/285 289/260/289 290/261/290
f 285/256/285 290/261/290 291/262/291
f 285/256/285 291/262/291 292/263/292
f 285/256/285 292/263/292 293/264/293
f 285/256/285 293/264/293 294/265/294
f 285/256/285 294/265/294 295/266/295
f 285/256/285 295/266/295 296/267/296
f 285/256/285 296/267/296 297/268/297
f 285/256/285 297/268/297 286/257/286
f 287/258/287 286/257/286 298/269/298
f 298/269/298 299/270/299 287/258/287
f 288/259/288 287/258/287 299/270/299
f 299/270/299 300/271/300 288/259/288
f 289/260/289 288/259/288 300/271/300
f 300/271/300 301/272/301 289/260/289
f 290/261/290 289/260/289 301/272/301
f 301/272/301 302/273/302 290/261/290
f 291/262/291 290/261/290 302/273/302
f 302/273/302 303/274/303 291/262/291
f 292/263/292 291/262/291 303/274/303
f 303/274/303 304/275/304 292/263/292
f 293/264/293 292/263/292 304/275/304
f 304/275/304 305/276/305 293/264/293
f 294/265/294 293/264/293 305/276/305
f 305/276/305 306/277/306 294/265/294
f 295/266/295 294/265/294 306/277/306
f 306/277/306 307/278/307 295/266/295
f 296/267/296 295/266/295 307/278/307
f 307/278/307 308/279/308 296/267/296
f 297/268/297 296/267/296 308/279/308
f 308/279/308 309/280/309 297/268/297
f 286/257/286 297/268/297 309/280/309
f 309/280/309 298/269/298 286/257/286
f 299/270/299 298/269/298 310/281/310
f 310/281/310 311/282/311 299/270/299
f 300/271/300 299/270/299 311/282/311
f 311/282/311 312/283/312 300/271/300
f 301/272/301 300/271/300 312/283/312
f 312/283/312 313/284/313 301/272/301
f 302/273/302 301/272/301 313/284/313
f 313/284/313 314/285/314 302/273/302
f 303/274/303 302/273/302 314/285/314
f 314/285/314 315/286/315 303/274/303
f 304/275/304 303/274/303 315/286/315
f 315/286/315 316/287/316 304/275/304
f 305/276/305 304/275/304 316/287/316
f 316/287/316 317/288/317 305/276/305
f 306/277/306 305/276/305 317/288/317
f 317/288/317 318/289/318 306/277/306
f 307/278/307 306/277/306 318/289/318
f 318/289/318 319/290/319 307/278/307
f 308/279/308 307/278/307 319/290/319
f 319/290/319 320/291/320 308/279/308
f 309/280/309 308/279/308 320/291/320
f 320/291/320 321/292/321 309/280/309
f 298/269/298 309/280/309 321/292/321
f 321/292/321 310/281/310 298/269/298
f 311/296/311 310/293/310 322/294/322
f 322/294/322 323/295/323 311/296/311
f 312/298/312 311/296/311 323/295/323
f 323/295/323 324/297/324 312/298/312
f 313/300/313 312/298/312 324/297/324
f 324/297/324 325/299/325 313/300/313
f 314/302/314 313/300/313 325/299/325
f 325/299/325 326/301/326 314/302/314
f 315/304/315 314/302/314 326/301/326
f 326/301/326 327/303/327 315/304/315
f 316/306/316 315/304/315 327/303/327
f 327/303/327 328/305/328 316/306/316
f 317/308/317 316/306/316 328/305/328
f 328/305/328 329/307/329 317/308/317
f 318/310/318 317/308/317 329/307/329
f 329/307/329 330/309/330 318/310/318
f 319/312/319 318/310/318 330/309/330
f 330/309/330 331/311/331 319/312/319
f 320/314/320 319/312/319 331/311/331
f 331/311/331 332/313/332 320/314/320
f 321/316/321 320/314/320 332/313/332
f 332/313/332 333/315/333 321/316/321
f 310/293/310 321/316/321 333/315/333
f 333/315/333 322/294/322 310/293/310
f 323/295/323 322/294/322 334/317/334
f 334/317/334 335/318/335 323/295/323
f 324/297/324 323/295/323 335/318/335
f 335/318/335 336/319/336 324/297/324
f 325/299/325 324/297/324 336/319/336
f 336/319/336 337/320/337 325/299/325
f 326/301/326 325/299/325 337/320/337
f 337/320/337 338/321/338 326/301/326
f 327/303/327 326/301/326 338/321/338
f 338/321/338 339/322/339 327/303/327
f 328/305/328 327/303/327 339/322/339
f 339/322/339 340/323/340 328/305/328
f 329/307/329 328/305/328 340/323/340
f 340/323/340 341/324/341 329/307/329
f 330/309/330 329/307/329 341/324/341
f 341/324/341 342/325/342 330/309/330
f 331/311/331 330/309/330 342/325/342
f 342/325/342 343/326/343 331/311/331
f 332/313/332 331/311/331 343/326/343
f 343/326/343 344/327/344 332/313/332
f 333/315/333 332/313/332 344/327/344
f 344/327/344 345/328/345 333/315/333
f 322/294/322 333/315/333 345/328/345
f 345/328/345 334/317/334 322/294/322
f 346/329/346 335/318/335 334/317/334
f 346/329/346 336/319/336 335/318/335
f 346/329/346 337/320/337 336/319/336
f 346/329/346 338/321/338 337/320/337
f 346/329/346 339/322/339 338/321/338
f 346/329/346 340/323/340 339/322/339
f 346/329/346 341/324/341 340/323/340
f 346/329/346 342/325/342 341/324/341
f 346/329/346 343/326/343 342/325/342
f 346/329/346 344/327/344 343/326/343
f 346/329/346 345/328/345 344/327/344
f 346/329/346 334/317/334 345/328/345
f 347/256/347 348/257/348 349/258/349
f 347/256/347 349/258/349 350/259/350
f 347/256/347 350/259/350 351/260/351
f 347/256/347 351/260/351 352/261/352
f 347/256/347 352/261/352 353/262/353
f 347/256/347 353/262/353 354/263/354
f 347/256/347 354/263/354 355/264/355
f 347/256/347 355/264/355 356/265/356
f 347/256/347 356/265/356 357/266/357
f 347/256/347 357/266/357 358/267/358
f 347/256/347 358/267/358 359/268/359
f 347/256/347 359/268/359 348/257/348
f 349/258/349 348/257/348 360/269/360
f 360/269/360 361/270/361 349/258/349
f 350/259/350 349/258/349 361/270/361
f 361/270/361 362/271/362 350/259/350
f 351/260/351 350/259/350 362/271/362
f 362/271/362 363/272/363 351/260/351
f 352/261/352 351/260/351 363/272/363
f 363/272/363 364/273/364 352/261/352
f 353/262/353 352/261/352 364/273/364
f 364/273/364 365/274/365 353/262/353
f 354/263/354 353/262/353 365/274/365
f 365/274/365 366/275/366 354/263/354
f 355/264/355 354/263/354 366/275/366
f 366/275/366 367/276/367 355/264/355
f 356/265/356 355/264/355 367/276/367
f 367/276/367 368/277/368 356/265/356
f 357/266/357 356/265/356 368/277/368
f 368/277/368 369/278/369 357/266/357
f 358/267/358 357/266/357 369/278/369
f 369/278/369 370/279/370 358/267/358
f 359/268/359 358/267/358 370/279/370
f 370/279/370 371/280/371 359/268/359
f 348/257/348 359/268/359 371/280/371
f 371/280/371 360/269/360 348/257/348
f 361/270/361 360/269/360 372/281/372
f 372/281/372 373/282/373 361/270/361
f 362/271/362 361/270/361 373/282/373
f 373/282/373 374/283/374 362/271/362
f 363/272/363 362/271/362 374/283/374
f 374/283/374 375/284/375 363/272/363
f 364/273/364 363/272/363 375/284/375
f 375/284/375 376/285/376 364/273/364
f 365/274/365 364/273/364 376/285/376
f 376/285/376 377/286/377 365/274/365
f 366/275/366 365/274/365 377/286/377
f 377/286/377 378/287/378 366/275/366
f 367/276/367 366/275/366 378/287/378
f 378/287/378 379/288/379 367/276/367
f 368/277/368 367/276/367 379/288/379
f 379/288/379 380/289/380 368/277/368
f 369/278/369 368/277/368 380/289/380
f 380/289/380 381/290/381 369/278/369
f 370/279/370 369/278/369 381/290/381
f 381/290/381 382/291/382 370/279/370
f 371/280/371 370/279/370 382/291/382
f 382/291/382 383/292/383 371/280/371
f 360/269/360 371/280/371 383/292/383
f 383/292/383 372/281/372 360/269/360
f 373/296/373 372/293/372 384/294/384
f 384/294/384 385/295/385 373/296/373
f 374/298/374 373/296/373 385/295/385
f 385/295/385 386/297/386 374/298/374
f 375/300/375 374/298/374 386/297/386
f 386/297/386 387/299/387 375/300/375
f 376/302/376 375/300/375 387/299/387
f 387/299/387 388/301/388 376/302/376
f 377/304/377 376/302/376 388/301/388
f 388/301/388 389/303/389 377/304/377
f 378/306/378 377/304/377 389/303/389
f 389/303/389 390/305/390 378/306/378
f 379/308/379 378/306/378 390/305/390
f 390/305/390 391/307/391 379/308/379
f 380/310/380 379/308/379 391/307/391
f 391/307/391 392/309/392 380/310/380
f 381/312/381 380/310/380 392/309/392
f 392/309/392 393/311/393 381/312/381
f 382/314/382 381/312/381 393/311/393
f 393/311/393 394/313/394 382/314/382
f 383/316/383 382/314/382 394/313/394
f 394/313/394 395/315/395 383/316/383
f 372/293/372 383/316/383 395/315/395
f 395/315/395 384/294/384 372/293/372
f 385/295/385 384/294/384 396/317/396
f 396/317/396 397/318/397 385/295/385
f 386/297/386 385/295/385 397/318/397
f 397/318/397 398/319/398 386/297/386
f 387/299/387 386/297/386 398/319/398
f 398/319/398 399/320/399 387/299/387
f 388/301/388 387/299/387 399/320/399
f 399/320/399 400/321/400 388/301/388
f 389/303/389 388/301/388 400/321/400
f 400/321/400 401/322/401 389/303/389
f 390/305/390 389/303/389 401/322/401
f 401/322/401 402/323/402 390/305/390
f 391/307/391 390/305/390 402/323/402
f 402/323/402 403/324/403 391/307/391
f 392/309/392 391/307/391 403/324/403
f 403/324/403 404/325/404 392/309/392
f 393/311/393 392/309/392 404/325/404
f 404/325/404 405/326/405 393/311/393
f 394/313/394 393/311/393 405/326/405
f 405/326/405 406/327/406 394/313/394
f 395/315/395 394/313/394 406/327/406
f 406/327/406 407/328/407 395/315/395
f 384/294/384 395/315/395 407/328/407
f 407/328/407 396/317/396 384/294/384
f 408/329/408 397/318/397 396/317/396
f 408/329/408 398/319/398 397/318/397
f 408/329/408 399/320/399 398/319/398
f 408/329/408 400/321/400 399/320/399
f 408/329/408 401/322/401 400/321/400
f 408/329/408 402/323/402 401/322/401
f 408/329/408 403/324/403 402/323/402
f 408/329/408 404/325/404 403/324/403
f 408/329/408 405/326/405 404/325/404
f 408/329/408 406/327/406 405/326/405
f 408/329/408 407/328/407 406/327/406
f 408/329/408 396/317/396 407/328/407
f 409/256/409 410/257/410 411/258/411
f 409/256/409 411/258/411 412/259/412
f 409/256/409 412/259/412 413/260/413
f 409/256/409 413/260/413 414/261/414
f 409/256/409 414/261/414 415/262/415
f 409/256/409 415/262/415 416/263/416
f 409/256/409 416/263/416 417/264/417
f 409/256/409 417/264/417 418/265/418
f 409/256/409 418/265/418 419/266/419
f 409/256/409 419/266/419 420/267/420
f 409/256/409 420/267/420 421/268/421
f 409/256/409 421/268/421 410/257/410
f 411/258/411 410/257/410 422/269/422
f 422/269/422 423/270/423 411/258/411
f 412/259/412 411/258/411 423/270/423
f 423/270/423 424/271/424 412/259/412
f 413/260/413 412/259/412 424/271/424
f 424/271/424 425/272/425 413/260/413
f 414/261/414 413/260/413 425/272/425
f 425/272/425 426/273/426 414/261/414
f 415/262/415 414/261/414 426/273/426
f 426/273/426 427/274/427 415/262/415
f 416/263/416 415/262/415 427/274/427
f 427/274/427 428/275/428 416/263/416
f 417/264/417 416/263/416 428/275/428
f 428/275/428 429/276/429 417/264/417
f 418/265/418 417/264/417 429/276/429
f 429/276/429 430/277/430 418/265/418
f 419/266/419 418/265/418 430/277/430
f 430/277/430 431/278/431 419/266/419
f 420/267/420 419/266/419 431/278/431
f 431/278/431 432/279/432 420/267/420
f 421/268/421 420/267/420 432/279/432
f 432/279/432 433/280/433 421/268/421
f 410/257/410 421/268/421 433/280/433
f 433/280/433 422/269/422 410/257/410
f 423/270/423 422/269/422 434/281/434
f 434/281/434 435/282/435 423/270/423
f 424/271/424 423/270/423 435/282/435
f 435/282/435 436/283/436 424/271/424
f 425/272/425 424/271/424 436/283/436
f 436/283/436 437/284/437 425/272/425
f 426/273/426 425/272/425 437/284/437
f 437/284/437 438/285/438 426/273/426
f 427/274/427 426/273/426 438/285/438
f 438/285/438 439/286/439 427/274/427
f 428/275/428 427/274/427 439/286/439
f 439/286/439 440/287/440 428/275/428
f 429/276/429 428/275/428 440/287/440
f 440/287/440 441/288/441 429/276/429
f 430/277/430 429/276/429 441/288/441
f 441/288/441 442/289/442 430/277/430
f 431/278/431 430/277/430 442/289/442
f 442/289/442 443/290/443 431/278/431
f 432/279/432 431/278/431 443/290/443
f 443/290/443 444/291/444 432/279/432
f 433/280/433 432/279/432 444/291/444
f 444/291/444 445/292/445 433/280/433
f 422/269/422 433/280/433 445/292/445
f 445/292/445 434/281/434 422/269/422
f 435/296/435 434/293/434 446/294/446
f 446/294/446 447/295/447 435/296/435
f 436/298/436 435/296/435 447/295/447
f 447/295/447 448/297/448 436/298/436
f 437/300/437 436/298/436 448/297/448
f 448/297/448 449/299/449 437/300/437
f 438/302/438 437/300/437 449/299/449
f 449/299/449 450/301/450 438/302/438
f 439/304/439 438/302/438 450/301/450
f 450/301/450 451/303/451 439/304/439
f 440/306/440 439/304/439 451/303/451
f 451/303/451 452/305/452 440/306/440
f 441/308/441 440/306/440 452/305/452
f 452/305/452 453/307/453 441/308/441
f 442/310/442 441/308/441 453/307/453
f 453/307/453 454/309/454 442/310/442
f 443/312/443 442/310/442 454/309/454
f 454/309/454 455/311/455 443/312/443
f 444/314/444 443/312/443 455/311/455
f 455/311/455 456/313/456 444/314/444
f 445/316/445 444/314/444 456/313/456
f 456/313/456 457/315/457 445/316/445
f 434/293/434 445/316/445 457/315/457
f 457/315/457 446/294/446 434/293/434
f 447/295/447 446/294/446 458/317/458
f 458/317/458 459/318/459 447/295/447
f 448/297/448 447/295/447 459/318/459
f 459/318/459 460/319/460 448/297/448
f 449/299/449 448/297/448 460/319/460
f 460/319/460 461/320/461 449/299/449
f 450/301/450 449/299/449 461/320/461
f 461/320/461 462/321/462 450/301/450
f 451/303/451 450/301/450 462/321/462
f 462/321/462 463/322/463 451/303/451
f 452/305/452 451/303/451 463/322/463
f 463/322/463 464/323/464 452/305/452
f 453/307/453 452/305/452 464/323/464
f 464/323/464 465/324/465 453/307/453
f 454/309/454 453/307/453 465/324/465
f 465/324/465 466/325/466 454/309/454
f 455/311/455 454/309/454 466/325/466
f 466/325/466 467/326/467 455/311/455
f 456/313/456 455/311/455 467/326/467
f 467/326/467 468/327/468 456/313/456
f 457/315/457 456/313/456 468/327/468
f 468/327/468 469/328/469 457/315/457
f 446/294/446 457/315/457 469/328/469
f 469/328/469 458/317/458 446/294/446
f 470/329/470 459/318/459 458/317/458
f 470/329/470 460/319/460 459/318/459
f 470/329/470 461/320/461 460/319/460
f 470/329/470 462/321/462 461/320/461
f 470/329/470 463/322/463 462/321/462
f 470/329/470 464/323/464 463/322/463
f 470/329/470 465/324/465 464/323/464
f 470/329/470 466/325/466 465/324/465
f 470/329/470 467/326/467 466/325/466
f 470/329/470 468/327/468 467/326/467
f 470/329/470 469/328/469 468/327/468
f 470/329/470 458/317/458 469/328/469
f 471/256/471 472/257/472 473/258/473
f 471/256/471 473/258/473 474/259/474
f 471/256/471 474/259/474 475/260/475
f 471/256/471 475/260/475 476/261/476
f 471/256/471 476/261/476 477/262/477
f 471/256/471 477/262/477 478/263/478
f 471/256/471 478/263/478 479/264/479
f 471/256/471 479/264/479 480/265/480
f 471/256/471 480/265/480 481/266/481
f 471/256/471 481/266/481 482/267/482
f 471/256/471 482/267/482 483/268/483
f 471/256/471 483/268/483 472/257/472
f 473/258/473 472/257/472 484/269/484
f 484/269/484 485/270/485 473/258/473
f 474/259/474 473/258/473 485/270/485
f 485/270/485 486/271/486 474/259/474
f 475/260/475 474/259/474 486/271/486
f 486/271/486 487/272/487 475/260/475
f 476/261/476 475/260/475 487/272/487
f 487/272/487 488/273/488 476/261/476
f 477/262/477 476/261/476 488/273/488
f 488/273/488 489/274/489 477/262/477
f 478/263/478 477/262/477 489/274/489
f 489/274/489 490/275/490 478/263/478
f 479/264/479 478/263/478 490/275/490
f 490/275/490 491/276/491 479/264/479
f 480/265/480 479/264/479 491/276/491
f 491/276/491 492/277/492 480/265/480
f 481/266/481 480/265/480 492/277/492
f 492/277/492 493/278/493 481/266/481
f 482/267/482 481/266/481 493/278/493
f 493/278/493 494/279/494 482/267/482
f 483/268/483 482/267/482 494/279/494
f 494/279/494 495/280/495 483/268/483
f 472/257/472 483/268/483 495/280/495
f 495/280/495 484/269/484 472/257/472
f 485/270/485 484/269/484 496/281/496
f 496/281/496 497/282/497 485/270/485
f 486/271/486 485/270/485 497/282/497
f 497/282/497 498/283/498 486/271/486
f 487/272/487 486/271/486 498/283/498
f 498/283/498 499/284/499 487/272/487
f 488/273/488 487/272/487 499/284/499
f 499/284/499 500/285/500 488/273/488
f 489/274/489 488/273/488 500/285/500
f 500/285/500 501/286/501 489/274/489
f 490/275/490 489/274/489 501/286/501
f 501/286/501 502/287/502 490/275/490
f 491/276/491 490/275/490 502/287/502
f 502/287/502 503/288/503 491/276/491
f 492/277/492 491/276/491 503/288/503
f 503/288/503 504/289/504 492/277/492
f 493/278/493 492/277/492 504/289/504
f 504/289/504 505/290/505 493/278/493
f 494/279/494 493/278/493 505/290/505
f 505/290/505 506/291/506 494/279/494
f 495/280/495 494/279/494 506/291/506
f 506/291/506 507/292/507 495/280/495
f 484/269/484 495/280/495 507/292/507
f 507/292/507 496/281/496 484/269/484
f 497/296/497 496/293/496 508/294/508
f 508/294/508 509/295/509 497/296/497
f 498/298/498 497/296/497 509/295/509
f 509/295/509 510/297/510 498/298/498
f 499/300/499 498/298/498 510/297/510
f 510/297/510 511/299/511 499/300/499
f 500/302/500 499/300/499 511/299/511
f 511/299/511 512/301/512 500/302/500
f 501/304/501 500/302/500 512/301/512
f 512/301/512 513/303/513 501/304/501
f 502/306/502 501/304/501 513/303/513
f 513/303/513 514/305/514 502/306/502
f 503/308/503 502/306/502 514/305/514
f 514/305/514 515/307/515 503/308/503
f 504/310/504 503/308/503 515/307/515
f 515/307/515 516/309/516 504/310/504
f 505/312/505 504/310/504 516/309/516
f 516/309/516 517/311/517 505/312/505
f 506/314/506 505/312/505 517/311/517
f 517/311/517 518/313/518 506/314/506
f 507/316/507 506/314/506 518/313/518
f 518/313/518 519/315/519 507/316/507
f 496/293/496 507/316/507 519/315/519
f 519/315/519 508/294/508 496/293/496
f 509/295/509 508/294/508 520/317/520
f 520/317/520 521/318/521 509/295/509
f 510/297/510 509/295/509 521/318/521
f 521/318/521 522/319/522 510/297/510
f 511/299/511 510/297/510 522/319/522
f 522/319/522 523/320/523 511/299/511
f 512/301/512 511/299/511 523/320/523
f 523/320/523 524/321/524 512/301/512
f 513/303/513 512/301/512 524/321/524
f 524/321/524 525/322/525 513/303/513
f 514/305/514 513/303/513 525/322/525
f 525/322/525 526/323/526 514/305/514
f 515/307/515 514/305/514 526/323/526
f 526/323/526 527/324/527 515/307/515
f 516/309/516 515/307/515 527/324/527
f 527/324/527 528/325/528 516/309/516
f 517/311/517 516/309/516 528/325/528
f 528/325/528 529/326/529 517/311/517
f 518/313/518 517/311/517 529/326/529
f 529/326/529 530/327/530 518/313/518
f 519/315/519 518/313/518 530/327/530
f 530/327/530 531/328/531 519/315/519
f 508/294/508 519/315/519 531/328/531
f 531/328/531 520/317/520 508/294/508
f 532/329/532 521/318/521 520/317/520
f 532/329/532 522/319/522 521/318/521
f 532/329/532 523/320/523 522/319/522
f 532/329/532 524/321/524 523/320/523
f 532/329/532 525/322/525 524/321/524
f 532/329/532 526/323/526 525/322/525
f 532/329/532 527/324/527 526/323/526
f 532/329/532 528/325/528 527/324/527
f 532/329/532 529/326/529 528/325/528
f 532/329/532 530/327/530 529/326/529
f 532/329/532 531/328/531 530/327/530
f 532/329/532 520/317/520 531/328/531
